<?xml version="1.0" ?><!DOCTYPE svg  PUBLIC '-//W3C//DTD SVG 1.1//EN'  'http://www.w3.org/Graphics/SVG/1.1/DTD/svg11.dtd'><svg enable-background="new 0 0 91 91" height="91px" id="Layer_1" version="1.1" viewBox="0 0 91 91" width="91px" xml:space="preserve" xmlns="http://www.w3.org/2000/svg" xmlns:xlink="http://www.w3.org/1999/xlink"><g><g><g><g><rect fill="#9ABFDA" height="16.236" width="72.716" x="2.932" y="13.69"/><path d="M75.647,32.439H2.932c-1.387,0-2.512-1.125-2.512-2.513V13.69c0-1.388,1.125-2.513,2.512-2.513h72.716      c1.388,0,2.513,1.125,2.513,2.513v16.236C78.16,31.314,77.035,32.439,75.647,32.439z M5.445,27.414h67.689V16.203H5.445V27.414z      " fill="#454B53"/></g><path d="M68.335,88.037H2.932c-1.388,0-2.513-1.125-2.513-2.513V29.93c0-1.388,1.125-2.513,2.513-2.513h72.715     c1.389,0,2.514,1.125,2.514,2.513v10.197c0,1.388-1.125,2.513-2.514,2.513c-1.387,0-2.512-1.125-2.512-2.513v-7.685H5.444v50.569     h62.891c2.646,0,4.8-2.155,4.8-4.805V52.081c0-1.388,1.125-2.513,2.512-2.513c1.389,0,2.514,1.125,2.514,2.513v26.126     C78.16,83.627,73.752,88.037,68.335,88.037z" fill="#454B53"/><path d="M17.566,23.196c-1.388,0-2.513-1.125-2.513-2.513V6.919c0-1.388,1.125-2.513,2.513-2.513     s2.513,1.125,2.513,2.513v13.765C20.079,22.071,18.954,23.196,17.566,23.196z" fill="#454B53"/><path d="M39.291,23.196c-1.387,0-2.512-1.125-2.512-2.513V6.919c0-1.388,1.125-2.513,2.512-2.513     c1.389,0,2.514,1.125,2.514,2.513v13.765C41.805,22.071,40.68,23.196,39.291,23.196z" fill="#454B53"/><path d="M61.013,23.196c-1.388,0-2.513-1.125-2.513-2.513V6.919c0-1.388,1.125-2.513,2.513-2.513     s2.513,1.125,2.513,2.513v13.765C63.525,22.071,62.4,23.196,61.013,23.196z" fill="#454B53"/><g><rect fill="#FDE497" height="10.968" width="10.97" x="13.163" y="41.112"/><path d="M24.133,54.593h-10.97c-1.388,0-2.513-1.125-2.513-2.513V41.112c0-1.388,1.125-2.513,2.513-2.513h10.97      c1.387,0,2.512,1.125,2.512,2.513V52.08C26.645,53.468,25.52,54.593,24.133,54.593z M15.676,49.567h5.943v-5.942h-5.943V49.567z      " fill="#454B53"/></g><g><polyline fill="#B0E0D4" points="65.42,61.648 65.42,73.817 33.809,73.817 33.809,41.115 65.42,41.115 65.42,49.054     "/><path d="M65.42,76.33H33.809c-1.388,0-2.513-1.125-2.513-2.513V41.115c0-1.388,1.125-2.513,2.513-2.513H65.42      c1.388,0,2.513,1.125,2.513,2.513v7.938c0,1.388-1.125,2.513-2.513,2.513s-2.513-1.125-2.513-2.513v-5.426H36.321v27.677h26.586      v-9.656c0-1.388,1.125-2.513,2.513-2.513s2.513,1.125,2.513,2.513v12.169C67.933,75.205,66.808,76.33,65.42,76.33z" fill="#454B53"/></g><g><rect fill="#FDE497" height="10.968" width="10.97" x="13.163" y="62.845"/><path d="M24.133,76.325h-10.97c-1.388,0-2.513-1.125-2.513-2.513V62.845c0-1.388,1.125-2.513,2.513-2.513h10.97      c1.387,0,2.512,1.125,2.512,2.513v10.968C26.645,75.2,25.52,76.325,24.133,76.325z M15.676,71.3h5.943v-5.942h-5.943V71.3z" fill="#454B53"/></g><path d="M49.613,65.358c-0.107,0-0.217-0.007-0.325-0.021c-0.715-0.094-1.354-0.489-1.758-1.087l-7.258-10.766     c-0.775-1.15-0.472-2.712,0.679-3.487c1.15-0.777,2.713-0.472,3.488,0.679l5.666,8.405l36.312-31.688     c1.046-0.913,2.632-0.806,3.545,0.24c0.912,1.046,0.805,2.633-0.241,3.545L51.266,64.738     C50.806,65.141,50.218,65.358,49.613,65.358z" fill="#454B53"/></g></g></g></svg>