<?xml version="1.0" ?><!DOCTYPE svg  PUBLIC '-//W3C//DTD SVG 1.1//EN'  'http://www.w3.org/Graphics/SVG/1.1/DTD/svg11.dtd'><svg enable-background="new 0 0 91 91" height="91px" id="Layer_1" version="1.1" viewBox="0 0 91 91" width="91px" xml:space="preserve" xmlns="http://www.w3.org/2000/svg" xmlns:xlink="http://www.w3.org/1999/xlink"><g><circle cx="45.517" cy="44.749" fill="#9ABFDA" r="29.396"/><g><g><path d="M15.986,89.346c-0.563,0-1.127-0.188-1.595-0.572c-1.071-0.882-1.226-2.465-0.345-3.537l7.813-9.497     c0.882-1.07,2.466-1.225,3.536-0.344c1.072,0.882,1.227,2.465,0.345,3.537l-7.813,9.497     C17.432,89.033,16.711,89.346,15.986,89.346z" fill="#454B53"/><path d="M75.512,89.346c-0.725,0-1.445-0.313-1.941-0.916l-7.816-9.497c-0.881-1.071-0.728-2.655,0.344-3.537     c1.072-0.881,2.654-0.727,3.537,0.344l7.815,9.497c0.882,1.071,0.728,2.655-0.343,3.537     C76.639,89.158,76.074,89.346,75.512,89.346z" fill="#454B53"/><path d="M45.75,84.39c-21.87,0-39.662-17.792-39.662-39.662c0-21.866,17.792-39.655,39.662-39.655     c21.867,0,39.658,17.789,39.658,39.655C85.408,66.598,67.617,84.39,45.75,84.39z M45.75,10.098     c-19.1,0-34.637,15.535-34.637,34.63c0,19.099,15.537,34.637,34.637,34.637c19.097,0,34.633-15.538,34.633-34.637     C80.383,25.633,64.847,10.098,45.75,10.098z" fill="#454B53"/><path d="M56.779,47.24H45.866c-1.388,0-2.513-1.125-2.513-2.513V16.765c0-1.388,1.125-2.513,2.513-2.513     s2.513,1.125,2.513,2.513v25.45h8.4c1.389,0,2.514,1.125,2.514,2.513S58.168,47.24,56.779,47.24z" fill="#454B53"/><path d="M45.869,75.164c-1.389,0-2.514-1.125-2.514-2.513V66.45c0-1.388,1.125-2.513,2.514-2.513     c1.387,0,2.512,1.125,2.512,2.513v6.201C48.381,74.039,47.256,75.164,45.869,75.164z" fill="#454B53"/><path d="M23.863,47.24h-6.111c-1.388,0-2.513-1.125-2.513-2.513s1.125-2.513,2.513-2.513h6.111     c1.388,0,2.513,1.125,2.513,2.513S25.251,47.24,23.863,47.24z" fill="#454B53"/><path d="M73.746,47.24h-6.113c-1.387,0-2.512-1.125-2.512-2.513s1.125-2.513,2.512-2.513h6.113     c1.389,0,2.514,1.125,2.514,2.513S75.135,47.24,73.746,47.24z" fill="#454B53"/><path d="M4.712,19.945c-1.388,0-2.513-1.125-2.513-2.513V12.09c0-5.945,4.84-10.783,10.788-10.783h5.339     c1.388,0,2.513,1.125,2.513,2.513s-1.125,2.513-2.513,2.513h-5.339c-3.178,0-5.763,2.583-5.763,5.758v5.343     C7.225,18.82,6.1,19.945,4.712,19.945z" fill="#454B53"/><path d="M86.78,19.945c-1.388,0-2.513-1.125-2.513-2.513V12.09c0-3.175-2.584-5.758-5.761-5.758h-5.339     c-1.389,0-2.514-1.125-2.514-2.513s1.125-2.513,2.514-2.513h5.339c5.947,0,10.786,4.838,10.786,10.783v5.343     C89.293,18.82,88.168,19.945,86.78,19.945z" fill="#454B53"/></g></g></g></svg>