<?xml version="1.0" ?><!DOCTYPE svg  PUBLIC '-//W3C//DTD SVG 1.1//EN'  'http://www.w3.org/Graphics/SVG/1.1/DTD/svg11.dtd'><svg enable-background="new 0 0 91 91" height="91px" id="Layer_1" version="1.1" viewBox="0 0 91 91" width="91px" xml:space="preserve" xmlns="http://www.w3.org/2000/svg" xmlns:xlink="http://www.w3.org/1999/xlink"><g><rect fill="#E0F1F8" height="10.05" width="49.377" x="40.979" y="78.634"/><rect fill="#E0F1F8" height="10.05" width="49.377" x="40.979" y="60.209"/><rect fill="#E0F1F8" height="10.051" width="49.377" x="40.979" y="41.783"/><rect fill="#E0F1F8" height="10.05" width="29.276" x="61.079" y="21.684"/><rect fill="#E0F1F8" height="10.05" width="36.294" x="54.062" y="3.259"/><path d="M88.092,6.395H55.736c-1.388,0-2.513-1.125-2.513-2.513s1.125-2.513,2.513-2.513h32.355   c1.388,0,2.513,1.125,2.513,2.513S89.479,6.395,88.092,6.395z" fill="#454B53"/><path d="M88.092,43.845H42.533c-1.388,0-2.513-1.125-2.513-2.513s1.125-2.513,2.513-2.513h45.559   c1.388,0,2.513,1.125,2.513,2.513S89.479,43.845,88.092,43.845z" fill="#454B53"/><path d="M88.092,62.569H42.533c-1.388,0-2.513-1.125-2.513-2.513s1.125-2.513,2.513-2.513h45.559   c1.388,0,2.513,1.125,2.513,2.513S89.479,62.569,88.092,62.569z" fill="#454B53"/><path d="M88.092,81.293H42.533c-1.388,0-2.513-1.125-2.513-2.514c0-1.387,1.125-2.512,2.513-2.512h45.559   c1.388,0,2.513,1.125,2.513,2.512C90.604,80.168,89.479,81.293,88.092,81.293z" fill="#454B53"/><path d="M88.092,25.119H62.344c-1.388,0-2.513-1.125-2.513-2.512c0-1.389,1.125-2.514,2.513-2.514h25.748   c1.388,0,2.513,1.125,2.513,2.514C90.604,23.994,89.479,25.119,88.092,25.119z" fill="#454B53"/><path d="M24.373,87.946c-1.388,0-2.513-1.125-2.513-2.513V6.18c0-1.389,1.125-2.514,2.513-2.514   s2.513,1.125,2.513,2.514v79.254C26.886,86.821,25.761,87.946,24.373,87.946z" fill="#454B53"/><g><polyline fill="#FDE497" points="24.368,4.939 3.321,25.99 45.42,25.99 24.375,4.939   "/><path d="M45.42,28.504H3.321c-1.017,0-1.933-0.613-2.321-1.552s-0.174-2.019,0.545-2.737L22.592,3.164    c0.49-0.491,1.134-0.736,1.776-0.736c0.001,0,0.004,0,0.007,0c0.644,0,1.286,0.245,1.777,0.736l21.044,21.051    c0.719,0.719,0.934,1.799,0.545,2.737S46.437,28.504,45.42,28.504z M9.386,23.479h29.97L24.371,8.49L9.386,23.479z" fill="#454B53"/></g></g></svg>