<?xml version="1.0" ?><!DOCTYPE svg  PUBLIC '-//W3C//DTD SVG 1.1//EN'  'http://www.w3.org/Graphics/SVG/1.1/DTD/svg11.dtd'><svg enable-background="new 0 0 91 91" height="91px" id="Layer_1" version="1.1" viewBox="0 0 91 91" width="91px" xml:space="preserve" xmlns="http://www.w3.org/2000/svg" xmlns:xlink="http://www.w3.org/1999/xlink"><g><g><path d="M53.958,19.4V3.438H12.429v84.904h58.517c4.412,0,8.023-3.613,8.023-8.027V27.428H61.985    C57.57,27.428,53.958,23.816,53.958,19.4z" fill="#FDE497"/><path d="M70.945,90.855H12.429c-1.388,0-2.513-1.125-2.513-2.514V3.438c0-1.388,1.125-2.513,2.513-2.513h41.529    c1.388,0,2.513,1.125,2.513,2.513V19.4c0,3.041,2.474,5.515,5.515,5.515h16.983c1.389,0,2.514,1.125,2.514,2.513v52.887    C81.482,86.126,76.756,90.855,70.945,90.855z M14.941,85.83h56.004c3.039,0,5.512-2.475,5.512-5.516V29.94H61.985    c-5.812,0-10.54-4.729-10.54-10.541V5.951H14.941V85.83z" fill="#454B53"/></g><path d="M65.379,47.164H26.021c-1.388,0-2.513-1.125-2.513-2.513s1.125-2.513,2.513-2.513h39.358   c1.388,0,2.513,1.125,2.513,2.513S66.767,47.164,65.379,47.164z" fill="#454B53"/><path d="M35.931,60.971h-9.911c-1.388,0-2.513-1.125-2.513-2.513s1.125-2.513,2.513-2.513h9.911   c1.388,0,2.513,1.125,2.513,2.513S37.319,60.971,35.931,60.971z" fill="#454B53"/><path d="M52.707,60.971h-4.889c-1.387,0-2.512-1.125-2.512-2.513s1.125-2.513,2.512-2.513h4.889   c1.389,0,2.514,1.125,2.514,2.513S54.096,60.971,52.707,60.971z" fill="#454B53"/><g><path d="M78.969,27.425L53.958,3.438V19.4c0,4.418,3.61,8.025,8.026,8.025H78.969z" fill="#B0E0D4"/><path d="M78.969,29.938H61.984c-5.811,0-10.539-4.727-10.539-10.538V3.438c0-1.007,0.602-1.916,1.527-2.311    c0.926-0.396,1.998-0.198,2.725,0.498l25.01,23.987c0.74,0.71,0.975,1.799,0.592,2.75C80.917,29.314,79.994,29.938,78.969,29.938z     M56.471,9.329V19.4c0,3.04,2.473,5.512,5.514,5.512h10.734L56.471,9.329z" fill="#454B53"/></g></g></svg>