<?xml version="1.0" ?><svg viewBox="0 0 128 128" xmlns="http://www.w3.org/2000/svg"><defs><style>.cls-1{fill:#2175aa;}.cls-2{fill:#4d91bb;}.cls-3{fill:#1d6694;}.cls-4{fill:#ffc219;}.cls-5{fill:#ffda75;}.cls-6{fill:#ffce47;}.cls-7{fill:#f69652;}.cls-8{fill:#f47c27;}.cls-9{fill:#fca566;}.cls-10{fill:#d2423f;}.cls-11{fill:#ba3b38;}.cls-12{fill:#dd6966;}</style></defs><title/><g data-name="22 Atom" id="_22_Atom"><circle class="cls-1" cx="64" cy="64" r="10"/><path class="cls-2" d="M59.34,68.18c-3.92-3.18-2.22-10,2.66-11A10.64,10.64,0,0,0,59.34,68.18Z"/><path class="cls-2" d="M54.55,64.55a10,10,0,0,1,16.78-7.33A10,10,0,1,0,57.22,71.33,10,10,0,0,1,54.55,64.55Z"/><path class="cls-3" d="M70.47,56.39A10,10,0,0,1,56.39,70.48,10,10,0,1,0,70.47,56.39Z"/><path class="cls-4" d="M64,114C40.18,114,40.17,14,64,14a2,2,0,0,1,0,4c-6.62,0-14,18.89-14,46s7.38,46,14,46A2,2,0,0,1,64,114Z"/><path class="cls-5" d="M31.93,93.75c-10.14,0-13.27-5.88-10.5-7.49a2,2,0,0,1,2.73.73C27.48,92.73,47.52,89.68,71,76.12S107.15,46.73,103.84,41a2,2,0,0,1,3.46-2C116.82,55.48,60.57,93.75,31.93,93.75Z"/><path class="cls-6" d="M103.84,87c3.31-5.73-9.36-21.57-32.84-35.12S27.47,35.27,24.16,41a2,2,0,0,1-3.46-2c11.91-20.63,98.52,29.36,86.6,50A2,2,0,0,1,103.84,87Z"/><path class="cls-7" d="M107.57,80.68a30,30,0,0,0-4.94-8.39A5,5,0,0,0,101,76a5,5,0,0,0,.1,1,27.54,27.54,0,0,1,1.72,2.84A4.84,4.84,0,0,0,107.57,80.68Z"/><path class="cls-6" d="M20.7,39a2,2,0,0,1,3.46,2C20.85,46.73,33.52,62.57,57,76.12S100.53,92.73,103.84,87a2,2,0,0,1,3.46,2C95.48,109.47,8.74,59.71,20.7,39Z"/><path class="cls-4" d="M64,114a2,2,0,0,1,0-4c6.62,0,14-18.89,14-46S70.62,18,64,18a2,2,0,0,1,0-4C87.82,14,87.83,114,64,114Z"/><path class="cls-8" d="M72,26.89c.44,1,.86,2.13,1.26,3.31A4.94,4.94,0,0,0,78,31.81a50.82,50.82,0,0,0-3.53-9.17A5,5,0,0,0,72,26.89Z"/><path class="cls-5" d="M20.7,89C8.79,68.37,95.38,18.36,107.3,39a2,2,0,0,1-3.46,2C100.53,35.26,80.48,38.32,57,51.88S20.85,81.27,24.16,87A2,2,0,0,1,20.7,89Z"/><path class="cls-9" d="M26.42,73a5,5,0,0,0-1.87.37,33,33,0,0,0-3.09,4.93,5,5,0,0,0,2.63,4.09,27.08,27.08,0,0,1,5.16-8.52A5,5,0,0,0,26.42,73Z"/><path class="cls-10" d="M30.42,76a5,5,0,1,1-5-5A5,5,0,0,1,30.42,76ZM103,71a5,5,0,1,0,5,5A5,5,0,0,0,103,71ZM75,20.9a5,5,0,1,0,5,5A5,5,0,0,0,75,20.9Z"/><path class="cls-11" d="M78.2,22.09c3.91,4.65-2.36,10.92-7,7a5,5,0,1,0,7-7Z"/><path class="cls-11" d="M28.62,72.19c3.91,4.65-2.36,10.92-7,7a5,5,0,1,0,7-7Z"/><path class="cls-11" d="M106.2,72.15c3.91,4.65-2.36,10.92-7,7a5,5,0,1,0,7-7Z"/><path class="cls-12" d="M29.07,72.6a5,5,0,1,0-7,7C17.68,75,24.39,68.25,29.07,72.6Z"/><path class="cls-12" d="M78.65,22.51a5,5,0,1,0-7,7C67.26,24.89,74,18.15,78.65,22.51Z"/><path class="cls-12" d="M106.65,72.56a5,5,0,1,0-7,7C95.26,74.95,102,68.21,106.65,72.56Z"/></g></svg>