<?xml version="1.0" ?><!DOCTYPE svg  PUBLIC '-//W3C//DTD SVG 1.1//EN'  'http://www.w3.org/Graphics/SVG/1.1/DTD/svg11.dtd'><svg enable-background="new 0 0 91 91" height="91px" id="Layer_1" version="1.1" viewBox="0 0 91 91" width="91px" xml:space="preserve" xmlns="http://www.w3.org/2000/svg" xmlns:xlink="http://www.w3.org/1999/xlink"><g><g><g><g><path d="M73.244,16.188v-6.18H18.184v6.18l0.036,24.824c0.35,14.531,12.333,23.494,27.105,23.494H46.1      c14.767,0,26.757-8.963,27.104-23.494L73.244,16.188z" fill="#FDE497"/><path d="M46.1,67.02h-0.774c-17.07,0-29.25-10.67-29.617-25.946l-0.037-31.064c0-1.388,1.125-2.513,2.513-2.513      h55.061c1.388,0,2.513,1.125,2.513,2.513l-0.041,31.008C75.351,56.35,63.172,67.02,46.1,67.02z M20.696,12.521l0.036,28.487      c0.297,12.333,10.41,20.985,24.593,20.985H46.1c14.184,0,24.296-8.652,24.592-21.041l0.04-28.432H20.696z" fill="#454B53"/></g><path d="M15.632,43.822h-0.344c-7.952,0-14.422-6.419-14.422-14.31V16.188c0-1.388,1.125-2.513,2.513-2.513     h14.805c1.388,0,2.513,1.125,2.513,2.513v24.173c0,0.06,0.007,0.118,0.012,0.177c0.01,0.132,0.019,0.264,0.023,0.396     c0.037,1.211-0.793,2.276-1.977,2.534C17.66,43.706,16.639,43.822,15.632,43.822z M5.892,18.701v10.812     c0,5.119,4.215,9.284,9.396,9.284h0.344c0.013,0,0.026,0,0.039,0V18.701H5.892z" fill="#454B53"/><g><path d="M18.22,41.013c-0.007-0.218-0.036-0.433-0.036-0.651V16.188" fill="#FDE497"/><path d="M18.219,43.525c-1.352,0-2.468-1.074-2.511-2.434l-0.011-0.17c-0.015-0.186-0.026-0.372-0.026-0.561      V16.188c0-1.388,1.125-2.513,2.513-2.513s2.513,1.125,2.513,2.513v24.173c0,0.06,0.007,0.118,0.012,0.177      c0.01,0.132,0.019,0.264,0.023,0.396c0.043,1.387-1.046,2.547-2.433,2.591C18.271,43.524,18.245,43.525,18.219,43.525z" fill="#454B53"/></g><path d="M76.138,43.822h-0.34c-1.008,0-2.031-0.116-3.128-0.354c-1.192-0.259-2.026-1.337-1.978-2.557     c0.006-0.13,0.016-0.259,0.027-0.389c0.004-0.055,0.011-0.109,0.012-0.164v-24.17c0-1.388,1.125-2.513,2.513-2.513h14.807     c1.388,0,2.513,1.125,2.513,2.513v13.324C90.563,37.403,84.092,43.822,76.138,43.822z M75.757,38.797c0.014,0,0.027,0,0.041,0     h0.34c5.184,0,9.4-4.165,9.4-9.284V18.701h-9.781V38.797z" fill="#454B53"/><path d="M45.713,86.069c-1.388,0-2.513-1.125-2.513-2.513V64.505c0-1.388,1.125-2.513,2.513-2.513     s2.513,1.125,2.513,2.513v19.052C48.226,84.944,47.101,86.069,45.713,86.069z" fill="#454B53"/><path d="M61.032,86.069H30.396c-1.388,0-2.513-1.125-2.513-2.513s1.125-2.513,2.513-2.513h30.636     c1.388,0,2.513,1.125,2.513,2.513S62.42,86.069,61.032,86.069z" fill="#454B53"/><g><rect fill="#9ABFDA" height="27.312" width="13.956" x="30.396" y="10.007"/><path d="M44.353,39.831H30.396c-1.388,0-2.513-1.125-2.513-2.513V10.007c0-1.388,1.125-2.513,2.513-2.513h13.956      c1.388,0,2.513,1.125,2.513,2.513v27.312C46.865,38.706,45.74,39.831,44.353,39.831z M32.909,34.806h8.931V12.52h-8.931V34.806z      " fill="#454B53"/></g></g></g></g></svg>