<?xml version="1.0" ?><!DOCTYPE svg  PUBLIC '-//W3C//DTD SVG 1.1//EN'  'http://www.w3.org/Graphics/SVG/1.1/DTD/svg11.dtd'><svg enable-background="new 0 0 91 91" height="91px" id="Layer_1" version="1.1" viewBox="0 0 91 91" width="91px" xml:space="preserve" xmlns="http://www.w3.org/2000/svg" xmlns:xlink="http://www.w3.org/1999/xlink"><g><g><g><g><circle cx="22.229" cy="68.24" fill="#E0F1F8" r="19.127"/><path d="M22.229,89.881c-11.932,0-21.641-9.708-21.641-21.641c0-11.932,9.709-21.64,21.641-21.64      c11.933,0,21.641,9.708,21.641,21.64C43.87,80.173,34.162,89.881,22.229,89.881z M22.229,51.626      c-9.162,0-16.615,7.453-16.615,16.614c0,9.162,7.453,16.615,16.615,16.615s16.615-7.453,16.615-16.615      C38.844,59.079,31.391,51.626,22.229,51.626z" fill="#454B53"/></g><path d="M13.592,79.39c-0.643,0-1.285-0.245-1.776-0.736c-0.981-0.981-0.981-2.572,0.001-3.553L29.087,57.83     c0.98-0.982,2.571-0.982,3.554,0c0.98,0.981,0.98,2.572-0.001,3.553L15.37,78.653C14.879,79.145,14.236,79.39,13.592,79.39z" fill="#454B53"/><path d="M30.864,79.39c-0.643,0-1.286-0.245-1.776-0.736L11.817,61.383c-0.982-0.98-0.982-2.571-0.001-3.553     c0.981-0.982,2.573-0.982,3.554,0L32.64,75.101c0.981,0.98,0.981,2.571,0.001,3.553C32.15,79.145,31.506,79.39,30.864,79.39z" fill="#454B53"/><g><circle cx="22.229" cy="22.758" fill="#B0E0D4" r="19.127"/><path d="M22.229,44.397c-11.932,0-21.641-9.708-21.641-21.64S10.297,1.119,22.229,1.119      c11.933,0,21.641,9.707,21.641,21.639S34.162,44.397,22.229,44.397z M22.229,6.145c-9.162,0-16.615,7.452-16.615,16.613      s7.453,16.614,16.615,16.614s16.615-7.453,16.615-16.614S31.391,6.145,22.229,6.145z" fill="#454B53"/></g><path d="M31.052,25.271H13.405c-1.388,0-2.513-1.125-2.513-2.513s1.125-2.513,2.513-2.513h17.647     c1.388,0,2.513,1.125,2.513,2.513S32.44,25.271,31.052,25.271z" fill="#454B53"/><path d="M22.229,34.094c-1.388,0-2.513-1.125-2.513-2.513V13.935c0-1.388,1.125-2.513,2.513-2.513     s2.513,1.125,2.513,2.513v17.646C24.742,32.969,23.617,34.094,22.229,34.094z" fill="#454B53"/><g><circle cx="68.77" cy="22.758" fill="#F4767A" r="19.129"/><path d="M68.771,44.397c-11.934,0-21.645-9.708-21.645-21.64S56.838,1.119,68.771,1.119      c11.932,0,21.641,9.707,21.641,21.639S80.703,44.397,68.771,44.397z M68.771,6.145c-9.164,0-16.619,7.452-16.619,16.613      s7.455,16.614,16.619,16.614c9.162,0,16.615-7.453,16.615-16.614S77.934,6.145,68.771,6.145z" fill="#454B53"/></g><path d="M77.594,25.271H59.947c-1.389,0-2.514-1.125-2.514-2.513s1.125-2.513,2.514-2.513h17.646     c1.387,0,2.512,1.125,2.512,2.513S78.98,25.271,77.594,25.271z" fill="#454B53"/><g><circle cx="68.77" cy="68.24" fill="#FDE9D0" r="19.129"/><path d="M68.771,89.881c-11.934,0-21.645-9.708-21.645-21.641c0-11.932,9.711-21.64,21.645-21.64      c11.932,0,21.641,9.708,21.641,21.64C90.412,80.173,80.703,89.881,68.771,89.881z M68.771,51.626      c-9.164,0-16.619,7.453-16.619,16.614c0,9.162,7.455,16.615,16.619,16.615c9.162,0,16.615-7.453,16.615-16.615      C85.387,59.079,77.934,51.626,68.771,51.626z" fill="#454B53"/></g><path d="M77.594,70.753H59.947c-1.389,0-2.514-1.125-2.514-2.513s1.125-2.513,2.514-2.513h17.646     c1.387,0,2.512,1.125,2.512,2.513S78.98,70.753,77.594,70.753z" fill="#454B53"/><path d="M68.77,64.352c-1.746,0-3.166-1.42-3.166-3.165c0-1.746,1.42-3.167,3.166-3.167s3.168,1.421,3.168,3.167     C71.938,62.932,70.516,64.352,68.77,64.352z M68.77,59.326c-1.023,0-1.857,0.835-1.857,1.86c0,1.024,0.834,1.858,1.857,1.858     c1.025,0,1.859-0.834,1.859-1.858C70.629,60.161,69.795,59.326,68.77,59.326z" fill="#454B53"/><path d="M68.77,78.462c-1.746,0-3.166-1.422-3.166-3.169c0-1.744,1.42-3.163,3.166-3.163s3.168,1.419,3.168,3.163     C71.938,77.04,70.516,78.462,68.77,78.462z M68.77,73.437c-1.023,0-1.857,0.833-1.857,1.856c0,1.026,0.834,1.862,1.857,1.862     c1.025,0,1.859-0.836,1.859-1.862C70.629,74.27,69.795,73.437,68.77,73.437z" fill="#454B53"/></g></g><g><g><g><circle cx="22.229" cy="68.24" fill="#E0F1F8" r="19.127"/><path d="M22.229,89.881c-11.932,0-21.641-9.708-21.641-21.641c0-11.932,9.709-21.64,21.641-21.64      c11.933,0,21.641,9.708,21.641,21.64C43.87,80.173,34.162,89.881,22.229,89.881z M22.229,51.626      c-9.162,0-16.615,7.453-16.615,16.614c0,9.162,7.453,16.615,16.615,16.615s16.615-7.453,16.615-16.615      C38.844,59.079,31.391,51.626,22.229,51.626z" fill="#454B53"/></g><path d="M13.592,79.39c-0.643,0-1.285-0.245-1.776-0.736c-0.981-0.981-0.981-2.572,0.001-3.553L29.087,57.83     c0.98-0.982,2.571-0.982,3.554,0c0.98,0.981,0.98,2.572-0.001,3.553L15.37,78.653C14.879,79.145,14.236,79.39,13.592,79.39z" fill="#454B53"/><path d="M30.864,79.39c-0.643,0-1.286-0.245-1.776-0.736L11.817,61.383c-0.982-0.98-0.982-2.571-0.001-3.553     c0.981-0.982,2.573-0.982,3.554,0L32.64,75.101c0.981,0.98,0.981,2.571,0.001,3.553C32.15,79.145,31.506,79.39,30.864,79.39z" fill="#454B53"/><g><circle cx="22.229" cy="22.758" fill="#B0E0D4" r="19.127"/><path d="M22.229,44.397c-11.932,0-21.641-9.708-21.641-21.64S10.297,1.119,22.229,1.119      c11.933,0,21.641,9.707,21.641,21.639S34.162,44.397,22.229,44.397z M22.229,6.145c-9.162,0-16.615,7.452-16.615,16.613      s7.453,16.614,16.615,16.614s16.615-7.453,16.615-16.614S31.391,6.145,22.229,6.145z" fill="#454B53"/></g><path d="M31.052,25.271H13.405c-1.388,0-2.513-1.125-2.513-2.513s1.125-2.513,2.513-2.513h17.647     c1.388,0,2.513,1.125,2.513,2.513S32.44,25.271,31.052,25.271z" fill="#454B53"/><path d="M22.229,34.094c-1.388,0-2.513-1.125-2.513-2.513V13.935c0-1.388,1.125-2.513,2.513-2.513     s2.513,1.125,2.513,2.513v17.646C24.742,32.969,23.617,34.094,22.229,34.094z" fill="#454B53"/><g><circle cx="68.77" cy="22.758" fill="#FDE9D0" r="19.129"/><path d="M68.771,44.397c-11.934,0-21.645-9.708-21.645-21.64S56.838,1.119,68.771,1.119      c11.932,0,21.641,9.707,21.641,21.639S80.703,44.397,68.771,44.397z M68.771,6.145c-9.164,0-16.619,7.452-16.619,16.613      s7.455,16.614,16.619,16.614c9.162,0,16.615-7.453,16.615-16.614S77.934,6.145,68.771,6.145z" fill="#454B53"/></g><path d="M77.594,25.271H59.947c-1.389,0-2.514-1.125-2.514-2.513s1.125-2.513,2.514-2.513h17.646     c1.387,0,2.512,1.125,2.512,2.513S78.98,25.271,77.594,25.271z" fill="#454B53"/><g><circle cx="68.77" cy="68.24" fill="#F4767A" r="19.129"/><path d="M68.771,89.881c-11.934,0-21.645-9.708-21.645-21.641c0-11.932,9.711-21.64,21.645-21.64      c11.932,0,21.641,9.708,21.641,21.64C90.412,80.173,80.703,89.881,68.771,89.881z M68.771,51.626      c-9.164,0-16.619,7.453-16.619,16.614c0,9.162,7.455,16.615,16.619,16.615c9.162,0,16.615-7.453,16.615-16.615      C85.387,59.079,77.934,51.626,68.771,51.626z" fill="#454B53"/></g><path d="M77.594,70.753H59.947c-1.389,0-2.514-1.125-2.514-2.513s1.125-2.513,2.514-2.513h17.646     c1.387,0,2.512,1.125,2.512,2.513S78.98,70.753,77.594,70.753z" fill="#454B53"/><path d="M68.77,64.352c-1.746,0-3.166-1.42-3.166-3.165c0-1.746,1.42-3.167,3.166-3.167s3.168,1.421,3.168,3.167     C71.938,62.932,70.516,64.352,68.77,64.352z" fill="#454B53"/><path d="M68.77,78.462c-1.746,0-3.166-1.422-3.166-3.169c0-1.744,1.42-3.163,3.166-3.163s3.168,1.419,3.168,3.163     C71.938,77.04,70.516,78.462,68.77,78.462z" fill="#454B53"/></g></g></g></svg>