<?xml version="1.0" ?><!DOCTYPE svg  PUBLIC '-//W3C//DTD SVG 1.1//EN'  'http://www.w3.org/Graphics/SVG/1.1/DTD/svg11.dtd'><svg enable-background="new 0 0 91 91" height="91px" id="Layer_1" version="1.1" viewBox="0 0 91 91" width="91px" xml:space="preserve" xmlns="http://www.w3.org/2000/svg" xmlns:xlink="http://www.w3.org/1999/xlink"><g><g><g><g><path d="M79.891,81.443H3.156V19.668h84.688v53.82C87.844,77.865,84.266,81.443,79.891,81.443z" fill="#9ABFDA"/><path d="M79.891,83.956H3.156c-1.388,0-2.513-1.125-2.513-2.513V19.668c0-1.388,1.125-2.513,2.513-2.513h84.688      c1.389,0,2.514,1.125,2.514,2.513v53.82C90.357,79.26,85.662,83.956,79.891,83.956z M5.668,78.931h74.222      c3,0,5.441-2.441,5.441-5.442V22.181H5.668V78.931z" fill="#454B53"/></g><g><polygon fill="#E0F1F8" points="66.551,19.668 24.453,19.668 30.067,8.677 60.939,8.677     "/><path d="M66.57,22.181c-0.006-0.001-0.014-0.001-0.02,0H24.453c-0.875,0-1.687-0.455-2.143-1.201      c-0.457-0.746-0.493-1.676-0.095-2.454L27.83,7.534c0.429-0.841,1.293-1.37,2.237-1.37h30.873c0.945,0,1.809,0.529,2.238,1.37      l5.479,10.731c0.27,0.4,0.426,0.883,0.426,1.402C69.082,21.056,67.957,22.181,66.57,22.181z M28.557,17.155h33.89l-3.045-5.966      H31.605L28.557,17.155z" fill="#454B53"/></g><g><circle cx="45.502" cy="50.556" fill="#E0F1F8" r="21.635"/><path d="M45.501,74.702c-13.314,0-24.146-10.832-24.146-24.146c0-13.316,10.832-24.149,24.146-24.149      c13.315,0,24.147,10.833,24.147,24.149C69.648,63.87,58.816,74.702,45.501,74.702z M45.501,31.432      c-10.544,0-19.121,8.579-19.121,19.124c0,10.544,8.577,19.121,19.121,19.121c10.543,0,19.122-8.577,19.122-19.121      C64.623,40.011,56.045,31.432,45.501,31.432z" fill="#454B53"/></g><g><path d="M56.727,50.556c0,6.2-5.025,11.226-11.221,11.226c-6.203,0-11.231-5.025-11.231-11.226      c0-6.198,5.028-11.227,11.231-11.227C51.701,39.329,56.727,44.357,56.727,50.556z" fill="#B0E0D4"/><path d="M45.505,64.294c-7.578,0-13.744-6.163-13.744-13.738c0-7.576,6.166-13.739,13.744-13.739      c7.573,0,13.733,6.163,13.733,13.739C59.238,58.131,53.078,64.294,45.505,64.294z M45.505,41.842      c-4.808,0-8.719,3.909-8.719,8.714s3.911,8.713,8.719,8.713c4.801,0,8.708-3.908,8.708-8.713S50.307,41.842,45.505,41.842z" fill="#454B53"/></g><path d="M75.207,32.27c-0.67,0-1.301-0.26-1.779-0.739c-0.471-0.471-0.73-1.101-0.73-1.771     c0-0.66,0.26-1.31,0.73-1.78c0.939-0.939,2.619-0.939,3.559,0c0.461,0.471,0.73,1.12,0.73,1.78c0,0.67-0.26,1.3-0.74,1.771     C76.508,32.01,75.877,32.27,75.207,32.27z" fill="#454B53"/></g></g></g></svg>