<?xml version="1.0" ?><!DOCTYPE svg  PUBLIC '-//W3C//DTD SVG 1.1//EN'  'http://www.w3.org/Graphics/SVG/1.1/DTD/svg11.dtd'><svg enable-background="new 0 0 91 91" height="91px" id="Layer_1" version="1.1" viewBox="0 0 91 91" width="91px" xml:space="preserve" xmlns="http://www.w3.org/2000/svg" xmlns:xlink="http://www.w3.org/1999/xlink"><g><g><path d="M26.469,16.727H11.212v71.665h61.557c4.294,0,7.813-3.517,7.813-7.81V16.727H65.038" fill="#E0F1F8"/><path d="M72.769,90.904H11.212c-1.388,0-2.513-1.125-2.513-2.513V16.727c0-1.388,1.125-2.513,2.513-2.513h15.257    c1.388,0,2.513,1.125,2.513,2.513s-1.125,2.513-2.513,2.513H13.725v66.64h59.044c2.923,0,5.3-2.377,5.3-5.297V19.239h-13.03    c-1.388,0-2.513-1.125-2.513-2.513s1.125-2.513,2.513-2.513h15.543c1.388,0,2.513,1.125,2.513,2.513v63.855    C83.094,86.273,78.462,90.904,72.769,90.904z" fill="#454B53"/></g><path d="M69.88,60.533H21.913c-1.388,0-2.513-1.125-2.513-2.513s1.125-2.513,2.513-2.513H69.88   c1.388,0,2.513,1.125,2.513,2.513S71.268,60.533,69.88,60.533z" fill="#454B53"/><path d="M69.88,45.414H21.913c-1.388,0-2.513-1.125-2.513-2.513c0-1.388,1.125-2.513,2.513-2.513H69.88   c1.388,0,2.513,1.125,2.513,2.513C72.393,44.289,71.268,45.414,69.88,45.414z" fill="#454B53"/><path d="M30.181,75.66h-8.268c-1.388,0-2.513-1.125-2.513-2.514c0-1.387,1.125-2.512,2.513-2.512h8.268   c1.388,0,2.513,1.125,2.513,2.512C32.693,74.535,31.568,75.66,30.181,75.66z" fill="#454B53"/><path d="M47.297,75.66h-8.689c-1.388,0-2.513-1.125-2.513-2.514c0-1.387,1.125-2.512,2.513-2.512h8.689   c1.388,0,2.513,1.125,2.513,2.512C49.81,74.535,48.685,75.66,47.297,75.66z" fill="#454B53"/><path d="M63.984,75.66h-8.264c-1.388,0-2.513-1.125-2.513-2.514c0-1.387,1.125-2.512,2.513-2.512h8.264   c1.388,0,2.513,1.125,2.513,2.512C66.497,74.535,65.372,75.66,63.984,75.66z" fill="#454B53"/><g><path d="M54.56,8.462c-1.613-3.254-4.927-5.509-8.804-5.509s-7.197,2.255-8.807,5.509H26.467v16.531h38.577V8.462    H54.56z" fill="#FDE497"/><path d="M65.044,27.505H26.467c-1.388,0-2.513-1.125-2.513-2.513V8.462c0-1.388,1.125-2.513,2.513-2.513h9.035    c2.279-3.434,6.079-5.509,10.254-5.509c4.169,0,7.968,2.076,10.249,5.509h9.039c1.388,0,2.513,1.125,2.513,2.513v16.531    C67.557,26.38,66.432,27.505,65.044,27.505z M28.979,22.48h33.552V10.975H54.56c-0.955,0-1.827-0.542-2.251-1.397    c-1.258-2.537-3.769-4.112-6.553-4.112c-2.789,0-5.301,1.575-6.555,4.11c-0.424,0.856-1.296,1.399-2.252,1.399h-7.97V22.48z" fill="#454B53"/></g></g></svg>