<?xml version="1.0" ?><!DOCTYPE svg  PUBLIC '-//W3C//DTD SVG 1.1//EN'  'http://www.w3.org/Graphics/SVG/1.1/DTD/svg11.dtd'><svg enable-background="new 0 0 91 91" height="91px" id="Layer_1" version="1.1" viewBox="0 0 91 91" width="91px" xml:space="preserve" xmlns="http://www.w3.org/2000/svg" xmlns:xlink="http://www.w3.org/1999/xlink"><g><path d="M58.104,68.71c0,8.656-7.018,15.674-15.674,15.674h-2.152c-8.656,0-15.674-7.018-15.674-15.674V17.982   c0-8.656,7.018-15.674,15.674-15.674h2.152c8.656,0,15.674,7.018,15.674,15.674V68.71z" fill="#B0E0D4"/><g><g><path d="M64.541,70.965c-1.387,0-2.512-1.125-2.512-2.514V13.492c0-1.388,1.125-2.513,2.512-2.513     c1.389,0,2.514,1.125,2.514,2.513v54.959C67.055,69.84,65.93,70.965,64.541,70.965z" fill="#454B53"/><path d="M26.098,70.966c-1.387,0-2.512-1.125-2.512-2.513V15.324c0-1.388,1.125-2.513,2.512-2.513     c1.389,0,2.514,1.125,2.514,2.513v53.129C28.611,69.841,27.486,70.966,26.098,70.966z" fill="#454B53"/><path d="M52.891,71.879c-1.387,0-2.512-1.125-2.512-2.514V15.324c0-1.388,1.125-2.513,2.512-2.513     c1.389,0,2.514,1.125,2.514,2.513v54.041C55.404,70.754,54.279,71.879,52.891,71.879z" fill="#454B53"/><path d="M52.895,18.752c-1.389,0-2.514-1.125-2.514-2.514c0-5.998-4.885-10.879-10.889-10.879     c-6,0-10.881,4.881-10.881,10.879c0,1.389-1.125,2.514-2.514,2.514c-1.387,0-2.512-1.125-2.512-2.514     c0-8.77,7.135-15.904,15.906-15.904c8.775,0,15.914,7.135,15.914,15.904C55.406,17.627,54.281,18.752,52.895,18.752z" fill="#454B53"/><path d="M45.322,90.857c-11.986,0-21.737-10.051-21.737-22.406c0-1.387,1.125-2.512,2.513-2.512     s2.513,1.125,2.513,2.512c0,9.584,7.497,17.381,16.712,17.381c9.212,0,16.707-7.797,16.707-17.381     c0-1.387,1.125-2.512,2.512-2.512c1.389,0,2.514,1.125,2.514,2.512C67.055,80.807,57.305,90.857,45.322,90.857z" fill="#454B53"/><path d="M38.235,71.881c-1.388,0-2.513-1.125-2.513-2.514V21.734c0-1.387,1.125-2.512,2.513-2.512     s2.513,1.125,2.513,2.512v47.633C40.748,70.756,39.623,71.881,38.235,71.881z" fill="#454B53"/><path d="M45.566,79.207c-5.428,0-9.844-4.414-9.844-9.842c0-1.387,1.125-2.512,2.513-2.512     s2.513,1.125,2.513,2.512c0,2.656,2.162,4.816,4.818,4.816c2.654,0,4.813-2.16,4.813-4.816c0-1.387,1.125-2.512,2.512-2.512     c1.389,0,2.514,1.125,2.514,2.512C55.404,74.793,50.99,79.207,45.566,79.207z" fill="#454B53"/></g></g></g></svg>