<?xml version="1.0" ?><!DOCTYPE svg  PUBLIC '-//W3C//DTD SVG 1.1//EN'  'http://www.w3.org/Graphics/SVG/1.1/DTD/svg11.dtd'><svg enable-background="new 0 0 91 91" height="91px" id="Layer_1" version="1.1" viewBox="0 0 91 91" width="91px" xml:space="preserve" xmlns="http://www.w3.org/2000/svg" xmlns:xlink="http://www.w3.org/1999/xlink"><g><g><g><g><path d="M64.776,33.78c0.713-1.45,0.828-1.229,1.881-2.295c4.214-4.254,11.234-4.642,15.86-0.821      c3.642,3.007,5.477,6.93,5.591,11.631c0.043,1.913-0.665,3.655-1.551,5.324c-1.763,3.313-4.193,6.117-6.803,8.775      c-4.663,4.75-9.826,8.902-15.23,12.758c-0.235,0.175-0.415,0.371-0.795,0.101c-5.896-4.215-11.084-8.409-11.084-8.409" fill="#FDE9D0"/><path d="M64.073,71.904c-0.821,0-1.472-0.37-1.801-0.604c-5.892-4.212-11.154-8.46-11.206-8.502      c-1.079-0.872-1.247-2.454-0.375-3.533c0.873-1.079,2.454-1.249,3.533-0.375c0.049,0.039,4.545,3.668,9.833,7.504      c5.526-4.009,10.072-7.855,13.904-11.759c2.179-2.22,4.64-4.929,6.378-8.195c0.906-1.709,1.282-2.932,1.257-4.088      c-0.099-4.041-1.629-7.231-4.679-9.75c-3.589-2.963-9.186-2.67-12.476,0.652c-0.347,0.35-0.606,0.582-0.819,0.772      c-0.298,0.265-0.298,0.265-0.592,0.862c-0.611,1.245-2.118,1.758-3.363,1.146c-1.245-0.612-1.759-2.118-1.146-3.363      c0.655-1.334,1.059-1.774,1.76-2.399c0.152-0.136,0.34-0.301,0.589-0.553c5.16-5.21,13.613-5.646,19.247-0.993      c4.182,3.452,6.369,7.997,6.503,13.507c0.059,2.629-0.954,4.888-1.843,6.563c-2.04,3.835-4.8,6.882-7.229,9.357      c-4.275,4.355-9.366,8.622-15.564,13.043C65.298,71.726,64.645,71.904,64.073,71.904z" fill="#454B53"/></g><g><path d="M34.234,31.364c0.916-1.864,1.973-3.446,3.335-4.815c5.423-5.477,14.463-5.98,20.416-1.059      c4.686,3.872,7.053,8.913,7.202,14.974c0.054,2.459-0.864,4.698-2.004,6.841c-2.261,4.27-5.398,7.881-8.757,11.302      c-5.995,6.112-12.64,11.453-19.604,16.419c-0.303,0.227-0.543,0.479-1.023,0.138c-7.59-5.436-14.818-11.276-21.227-18.085      c-2.734-2.913-5.201-6.015-7.178-9.51c-3.426-6.046-2.433-11.843,0.988-17.45c2.544-4.181,6.227-6.903,11.111-7.794      c6.657-1.208,13.076,2.02,16.256,8.138C33.887,30.717,34.015,30.964,34.234,31.364z" fill="#F4767A"/><path d="M34.23,77.843c-0.662,0-1.297-0.213-1.887-0.632C23.398,70.806,16.537,64.957,10.742,58.8      c-3.188-3.396-5.651-6.665-7.535-9.994C-0.361,42.508-0.015,35.78,4.238,28.81c3.007-4.941,7.315-7.956,12.805-8.957      c1.066-0.193,2.148-0.292,3.217-0.292c5.504,0,10.623,2.618,13.977,6.999c0.486-0.639,1.004-1.231,1.553-1.783      c3.264-3.297,7.865-5.19,12.619-5.19c4.113,0,8.083,1.409,11.178,3.968c5.214,4.309,7.944,9.978,8.113,16.849      c0.07,3.204-1.191,6.002-2.298,8.082c-2.561,4.838-6.079,8.722-9.182,11.882c-5.537,5.646-11.873,10.954-19.938,16.705      C35.979,77.305,35.281,77.843,34.23,77.843z M20.26,24.586c-0.769,0-1.548,0.07-2.317,0.21      c-4.015,0.732-7.183,2.963-9.413,6.628C5.205,36.872,4.904,41.607,7.58,46.33c1.685,2.978,3.916,5.931,6.824,9.028      c5.338,5.672,11.656,11.098,19.813,17.01c7.436-5.358,13.294-10.299,18.415-15.521c2.851-2.904,6.068-6.447,8.33-10.719      c0.873-1.641,1.757-3.587,1.713-5.61c-0.134-5.419-2.191-9.704-6.291-13.092c-2.196-1.816-5.029-2.816-7.977-2.816      c-3.422,0-6.722,1.351-9.053,3.706c-1.112,1.117-2.021,2.436-2.867,4.156c-0.413,0.842-1.262,1.383-2.199,1.403      c-0.939,0.049-1.809-0.482-2.259-1.305l-0.491-0.915C29.23,27.216,25.021,24.586,20.26,24.586z" fill="#454B53"/></g></g></g><path d="M52.301,48.19c-0.445,0-0.895-0.118-1.303-0.365c-1.186-0.721-1.563-2.267-0.843-3.452   c0.898-1.479,1.898-4.59,1.191-6.57c-0.264-0.737-0.743-1.194-1.556-1.481c-1.309-0.461-1.995-1.896-1.533-3.205   s1.898-1.995,3.205-1.533c2.244,0.791,3.841,2.358,4.616,4.53c1.456,4.079-0.429,8.894-1.629,10.869   C53.978,47.761,53.149,48.19,52.301,48.19z" fill="#FFFFFF"/><path d="M46.486,55.28c-0.934,0-1.836-0.508-2.271-1.395c-0.601-1.225-0.144-2.686,1.057-3.314   c0.001-0.001,0.003-0.001,0.003-0.002h0.001c0.019-0.01,0.038-0.02,0.058-0.029l0.064-0.031l0,0c0.337-0.154,0.77-0.269,1.13-0.269   c1.169,0,2.184,0.806,2.448,1.944c0.262,1.131-0.309,2.305-1.344,2.824l0,0c-0.004,0.002-0.007,0.004-0.011,0.006   s-0.008,0.004-0.013,0.006C47.25,55.197,46.866,55.28,46.486,55.28z" fill="#FFFFFF"/></g></svg>