<?xml version="1.0" ?><svg id="Layer_1" style="enable-background:new 0 0 40 40;" version="1.1" viewBox="0 0 40 40" xml:space="preserve" xmlns="http://www.w3.org/2000/svg" xmlns:xlink="http://www.w3.org/1999/xlink"><style type="text/css">
	.st0{fill:none;stroke:#C0C3CD;stroke-width:2;stroke-linecap:round;stroke-linejoin:round;stroke-miterlimit:10;}
	.st1{fill:#EBEFF2;stroke:#C0C3CD;stroke-width:2;stroke-linecap:round;stroke-linejoin:round;stroke-miterlimit:10;}
	.st2{fill:#F9E0B2;stroke:#FCB416;stroke-width:2;stroke-linecap:round;stroke-linejoin:round;stroke-miterlimit:10;}
	.st3{fill:none;stroke:#408ECC;stroke-width:2;stroke-linecap:round;stroke-linejoin:round;stroke-miterlimit:10;}
	.st4{fill:none;stroke:#35B8B2;stroke-width:2;stroke-linecap:round;stroke-linejoin:round;stroke-miterlimit:10;}
	.st5{fill:#CBE6F8;stroke:#408ECC;stroke-width:2;stroke-linecap:round;stroke-linejoin:round;stroke-miterlimit:10;}
	.st6{fill:none;stroke:#FCB416;stroke-width:2;stroke-linecap:round;stroke-linejoin:round;stroke-miterlimit:10;}
	.st7{fill:#B1E0E0;stroke:#35B8B2;stroke-width:2;stroke-linecap:round;stroke-linejoin:round;stroke-miterlimit:10;}
	.st8{fill:none;stroke:#35B8B2;stroke-width:2;stroke-miterlimit:10;}
	.st9{fill:#EBEFF2;stroke:#C0C3CD;stroke-width:2;stroke-miterlimit:10;}
	.st10{fill:none;stroke:#000000;stroke-width:2;stroke-linecap:round;stroke-linejoin:round;stroke-miterlimit:10;}
</style><g><g><g><g><path class="st2" d="M18.9340973,30.2435226v1.7317276H8v-1.7317276c0-3.0193634,2.4476786-5.4670429,5.4670439-5.4670429      h0.0000105C16.4864197,24.7764797,18.9340973,27.2241592,18.9340973,30.2435226z"/><path class="st2" d="M16.0782337,19.7231522c0,1.4412632-1.1654682,2.6156368-2.6067324,2.6156368      c-1.4501686,0-2.6156359-1.1743736-2.6156359-2.6156368s1.1654673-2.6156368,2.6156359-2.6156368      C14.9127655,17.1075153,16.0782337,18.281889,16.0782337,19.7231522z"/></g></g><g><g><path class="st4" d="M32,21.1607571v1.7317276H21.0659027v-1.7317276c0-3.0193653,2.4476776-5.4670439,5.4670429-5.4670439      h0.0000114C29.5523205,15.6937132,32,18.1413918,32,21.1607571z"/><path class="st4" d="M29.1441345,10.6403856c0,1.4412632-1.1654682,2.6156359-2.6067314,2.6156359      c-1.4501686,0-2.6156368-1.1743727-2.6156368-2.6156359s1.1654682-2.6156368,2.6156368-2.6156368      C27.9786663,8.0247488,29.1441345,9.1991215,29.1441345,10.6403856z"/></g></g></g><g><polyline class="st0" points="12.9624996,13.1870127 12.9624996,9.9037285 18.5681,9.9037285   "/><polyline class="st0" points="27.0375004,26.8129864 27.0375004,30.0962715 23.7541656,30.0962715   "/></g></g></svg>