<?xml version="1.0" ?><!DOCTYPE svg  PUBLIC '-//W3C//DTD SVG 1.1//EN'  'http://www.w3.org/Graphics/SVG/1.1/DTD/svg11.dtd'><svg enable-background="new 0 0 91 91" height="91px" id="Layer_1" version="1.1" viewBox="0 0 91 91" width="91px" xml:space="preserve" xmlns="http://www.w3.org/2000/svg" xmlns:xlink="http://www.w3.org/1999/xlink"><g><rect fill="#E0F1F8" height="10.051" width="49.38" x="40.377" y="2.908"/><rect fill="#E0F1F8" height="10.05" width="49.38" x="40.377" y="23.009"/><rect fill="#E0F1F8" height="10.05" width="49.38" x="40.377" y="41.434"/><rect fill="#E0F1F8" height="10.05" width="29.279" x="60.478" y="59.858"/><rect fill="#E0F1F8" height="10.05" width="34.618" x="55.139" y="79.959"/><path d="M87.493,81.848H55.139c-1.388,0-2.513-1.125-2.513-2.512c0-1.389,1.125-2.514,2.513-2.514h32.354   c1.388,0,2.513,1.125,2.513,2.514C90.006,80.723,88.881,81.848,87.493,81.848z" fill="#454B53"/><path d="M87.493,44.398H41.932c-1.388,0-2.513-1.125-2.513-2.514c0-1.387,1.125-2.512,2.513-2.512h45.562   c1.388,0,2.513,1.125,2.513,2.512C90.006,43.273,88.881,44.398,87.493,44.398z" fill="#454B53"/><path d="M87.493,25.674H41.932c-1.388,0-2.513-1.125-2.513-2.514c0-1.387,1.125-2.512,2.513-2.512h45.562   c1.388,0,2.513,1.125,2.513,2.512C90.006,24.549,88.881,25.674,87.493,25.674z" fill="#454B53"/><path d="M87.493,6.949H41.932c-1.388,0-2.513-1.125-2.513-2.512c0-1.389,1.125-2.514,2.513-2.514h45.562   c1.388,0,2.513,1.125,2.513,2.514C90.006,5.824,88.881,6.949,87.493,6.949z" fill="#454B53"/><path d="M87.493,63.123h-25.75c-1.388,0-2.513-1.125-2.513-2.513s1.125-2.513,2.513-2.513h25.75   c1.388,0,2.513,1.125,2.513,2.513S88.881,63.123,87.493,63.123z" fill="#454B53"/><path d="M23.771,86.25c-1.388,0-2.513-1.125-2.513-2.512V4.484c0-1.389,1.125-2.514,2.513-2.514   s2.513,1.125,2.513,2.514v79.254C26.284,85.125,25.159,86.25,23.771,86.25z" fill="#454B53"/><g><polyline fill="#FDE497" points="23.768,84.977 2.72,63.927 44.82,63.927 23.774,84.977   "/><path d="M23.774,87.49c-0.002-0.001-0.005-0.001-0.007,0c-0.644,0-1.286-0.246-1.776-0.736L0.943,65.703    c-0.719-0.719-0.934-1.799-0.545-2.738c0.389-0.938,1.305-1.551,2.321-1.551H44.82c1.017,0,1.933,0.612,2.321,1.551    c0.389,0.939,0.174,2.02-0.545,2.738L25.551,86.754C25.061,87.244,24.418,87.49,23.774,87.49z M8.785,66.439l14.985,14.987    l14.985-14.987H8.785z" fill="#454B53"/></g></g></svg>