<?xml version="1.0" ?><!DOCTYPE svg  PUBLIC '-//W3C//DTD SVG 1.1//EN'  'http://www.w3.org/Graphics/SVG/1.1/DTD/svg11.dtd'><svg enable-background="new 0 0 91 91" height="91px" id="Layer_1" version="1.1" viewBox="0 0 91 91" width="91px" xml:space="preserve" xmlns="http://www.w3.org/2000/svg" xmlns:xlink="http://www.w3.org/1999/xlink"><g><g><polygon fill="#FDE497" points="87.912,37.63 56.344,37.63 45.512,4.648 34.682,37.63 3.109,37.63 28.693,55.84 18.424,87.096     45.512,67.813 72.597,87.096 62.332,55.84   "/><path d="M72.597,89.608c-0.511,0-1.021-0.155-1.457-0.466L45.512,70.896L19.881,89.143    c-0.885,0.629-2.074,0.62-2.947-0.023c-0.873-0.645-1.235-1.776-0.896-2.808l9.691-29.498L1.652,39.677    c-0.891-0.634-1.27-1.771-0.936-2.812c0.332-1.041,1.3-1.748,2.393-1.748h29.753L43.124,3.864    c0.339-1.031,1.302-1.729,2.388-1.729c1.085,0,2.048,0.697,2.387,1.729l10.265,31.253h29.749c1.094,0,2.061,0.707,2.394,1.748    s-0.046,2.178-0.937,2.812L65.297,56.813l9.688,29.498c0.338,1.031-0.023,2.164-0.898,2.808    C73.644,89.445,73.12,89.608,72.597,89.608z M45.512,65.3c0.51,0,1.021,0.155,1.457,0.466l20.854,14.848l-7.878-23.989    c-0.344-1.046,0.033-2.193,0.93-2.831l19.176-13.65H56.344c-1.086,0-2.049-0.697-2.387-1.729l-8.445-25.713l-8.443,25.713    c-0.338,1.031-1.301,1.729-2.387,1.729H10.973l19.178,13.65c0.896,0.638,1.273,1.785,0.93,2.831l-7.881,23.988l20.855-14.847    C44.49,65.455,45.001,65.3,45.512,65.3z" fill="#454B53"/></g></g></svg>