<?xml version="1.0" ?><!DOCTYPE svg  PUBLIC '-//W3C//DTD SVG 1.1//EN'  'http://www.w3.org/Graphics/SVG/1.1/DTD/svg11.dtd'><svg enable-background="new 0 0 91 91" height="91px" id="Layer_1" version="1.1" viewBox="0 0 91 91" width="91px" xml:space="preserve" xmlns="http://www.w3.org/2000/svg" xmlns:xlink="http://www.w3.org/1999/xlink"><g><g><g><g><path d="M79.275,88.372H2.891V3.943l84.929,0.005V79.83C87.819,84.527,83.974,88.372,79.275,88.372z" fill="#E6CBA5"/><path d="M79.275,90.885H2.891c-1.388,0-2.513-1.125-2.513-2.513V3.943c0-0.666,0.265-1.306,0.736-1.777      c0.472-0.471,1.11-0.735,1.776-0.735l0,0l84.929,0.005c1.388,0,2.513,1.125,2.513,2.513V79.83      C90.332,85.926,85.372,90.885,79.275,90.885z M5.403,85.859h73.872c3.326,0,6.031-2.705,6.031-6.029V6.461L5.403,6.456V85.859z" fill="#454B53"/></g><g><polygon fill="#FDE497" points="72.749,23.332 17.965,23.332 2.893,3.943 87.819,3.943     "/><path d="M72.749,25.844H17.965c-0.775,0-1.508-0.357-1.983-0.971L0.91,5.485C0.32,4.729,0.215,3.701,0.637,2.84      c0.421-0.862,1.297-1.409,2.256-1.409h84.927c0.959,0,1.835,0.547,2.257,1.409c0.422,0.861,0.315,1.888-0.273,2.646      l-15.07,19.388C74.257,25.486,73.524,25.844,72.749,25.844z M19.193,20.818H71.52L82.685,6.456H8.028L19.193,20.818z" fill="#454B53"/></g><path d="M45.357,48.102c-1.389,0-2.514-1.125-2.514-2.512V23.332c0-1.389,1.125-2.514,2.514-2.514     c1.387,0,2.512,1.125,2.512,2.514V45.59C47.869,46.977,46.744,48.102,45.357,48.102z" fill="#454B53"/><g><path d="M56.122,56.359c0,5.945-4.822,10.765-10.769,10.765c-5.941,0-10.766-4.819-10.766-10.765      c0-5.949,4.824-10.77,10.766-10.77C51.3,45.59,56.122,50.41,56.122,56.359z" fill="#E0F1F8"/><path d="M45.354,69.637c-7.322,0-13.279-5.956-13.279-13.277c0-7.324,5.957-13.283,13.279-13.283      c7.323,0,13.281,5.959,13.281,13.283C58.635,63.681,52.677,69.637,45.354,69.637z M45.354,48.102      c-4.551,0-8.254,3.705-8.254,8.258c0,4.551,3.703,8.252,8.254,8.252c4.553,0,8.256-3.701,8.256-8.252      C53.609,51.807,49.906,48.102,45.354,48.102z" fill="#454B53"/></g></g></g></g></svg>