<?xml version="1.0" ?><!DOCTYPE svg  PUBLIC '-//W3C//DTD SVG 1.1//EN'  'http://www.w3.org/Graphics/SVG/1.1/DTD/svg11.dtd'><svg enable-background="new 0 0 91 91" height="91px" id="Layer_1" version="1.1" viewBox="0 0 91 91" width="91px" xml:space="preserve" xmlns="http://www.w3.org/2000/svg" xmlns:xlink="http://www.w3.org/1999/xlink"><g><circle cx="45.397" cy="46.069" fill="#E0E0E0" r="33.948"/><g><g><path d="M45.533,90.489c-11.95,0-23.185-4.653-31.635-13.104C5.449,68.938,0.795,57.704,0.795,45.754     S5.449,22.57,13.898,14.121C22.347,5.672,33.581,1.02,45.531,1.02s23.186,4.652,31.635,13.102s13.103,19.683,13.103,31.633     c0,11.949-4.653,23.183-13.103,31.632C68.717,85.836,57.482,90.489,45.533,90.489z M45.531,6.045     c-10.607,0-20.58,4.13-28.08,11.629c-7.5,7.5-11.631,17.473-11.631,28.08s4.131,20.579,11.631,28.079     c7.502,7.501,17.475,11.632,28.082,11.632c10.606,0,20.579-4.131,28.08-11.632c7.5-7.5,11.63-17.473,11.63-28.079     c0-10.607-4.13-20.58-11.63-28.08C66.112,10.175,56.14,6.045,45.531,6.045z" fill="#454B53"/><g><polygon fill="#7BA7C9" points="54.043,54.268 37.018,37.246 65.094,26.191     "/><path d="M54.043,56.78c-0.659,0-1.301-0.26-1.776-0.736L35.242,39.022c-0.6-0.599-0.856-1.459-0.684-2.288      c0.172-0.829,0.751-1.516,1.539-1.826l28.075-11.055c0.934-0.367,1.991-0.145,2.697,0.562c0.707,0.707,0.928,1.766,0.562,2.696      L56.381,55.188c-0.311,0.788-0.997,1.367-1.826,1.54C54.385,56.763,54.213,56.78,54.043,56.78z M41.506,38.18l11.603,11.602      l7.532-19.136L41.506,38.18z" fill="#454B53"/></g><g><polygon fill="#F4767A" points="54.046,54.268 37.021,37.244 25.971,65.317     "/><path d="M25.971,67.83c-0.654,0-1.297-0.256-1.777-0.736c-0.707-0.707-0.928-1.767-0.561-2.696l11.051-28.073      c0.31-0.788,0.996-1.367,1.825-1.54c0.83-0.171,1.69,0.084,2.288,0.684l17.025,17.023c0.6,0.599,0.856,1.459,0.684,2.288      s-0.752,1.516-1.54,1.826l-28.075,11.05C26.592,67.772,26.279,67.83,25.971,67.83z M37.955,41.731l-7.531,19.134l19.135-7.531      L37.955,41.731z" fill="#454B53"/></g></g></g></g></svg>