<?xml version="1.0" ?><!DOCTYPE svg  PUBLIC '-//W3C//DTD SVG 1.1//EN'  'http://www.w3.org/Graphics/SVG/1.1/DTD/svg11.dtd'><svg enable-background="new 0 0 91 91" height="91px" id="Layer_1" version="1.1" viewBox="0 0 91 91" width="91px" xml:space="preserve" xmlns="http://www.w3.org/2000/svg" xmlns:xlink="http://www.w3.org/1999/xlink"><g><path d="M88.371,27.674l-8.9,37.584c0,4.646-3.768,8.41-8.411,8.41H30.508c-4.643,0-8.412-3.765-8.412-8.41   l-8.903-37.584L35.947,45.48L50.78,27.674L65.621,45.48L88.371,27.674z" fill="#FDE497"/><path d="M68.693,76.191H22.601c-6.559,0-11.914-5.252-12.08-11.771L0.465,21.969   c-0.248-1.042,0.191-2.127,1.093-2.704c0.902-0.578,2.071-0.522,2.915,0.137L28.41,38.134l15.297-18.361   c0.957-1.147,2.916-1.151,3.875,0l15.302,18.361l23.935-18.732c0.843-0.66,2.011-0.714,2.913-0.138   c0.902,0.578,1.34,1.662,1.094,2.705L80.772,64.42C80.605,70.939,75.252,76.191,68.693,76.191z M7.031,27.808l8.461,35.719   c0.045,0.191,0.067,0.386,0.067,0.582c0,3.881,3.158,7.039,7.041,7.039h46.093c3.881,0,7.04-3.158,7.04-7.039   c0-0.196,0.023-0.391,0.067-0.582l8.459-35.718L64.065,43.613c-1.072,0.841-2.618,0.678-3.491-0.371L45.645,25.327L30.72,43.242   c-0.871,1.047-2.417,1.212-3.491,0.371L7.031,27.808z" fill="#454B53"/><path d="M46.22,51.608c-2.001,0-3.629-1.627-3.629-3.629c0-2,1.628-3.627,3.629-3.627s3.628,1.627,3.628,3.627   C49.848,49.981,48.221,51.608,46.22,51.608z" fill="#454B53"/></g></svg>