<?xml version="1.0" ?><svg viewBox="0 0 128 128" xmlns="http://www.w3.org/2000/svg"><defs><style>.cls-1{fill:#d89048;}.cls-2{fill:#c98643;}.cls-3{fill:#e8bc91;}.cls-4{fill:#efd3b6;}.cls-5{fill:#e0a66d;}.cls-6{fill:#4fb97a;}.cls-7{fill:#299455;}.cls-8{fill:#23a859;}</style></defs><title/><g data-name="11 Writing Board" id="_11_Writing_Board"><path class="cls-1" d="M77.15,112.95,64,73.49,50.85,112.95c-1.25,3.76-6.95,1.87-5.69-1.9l16-48a3,3,0,0,1,5.69,0l16,48C84.11,114.84,78.41,116.72,77.15,112.95Z"/><path class="cls-2" d="M63.26,72.74,55.74,95.29,50.17,96c4,.45,5.21.33,4.86,1.39l-4.78,14.36c-.66,2-2.92,3.21-4.71,2a3,3,0,0,0,5.3-.75L63.75,74.23Z"/><path class="cls-2" d="M82.79,110.9,66.85,63.05a3,3,0,0,0-1.14-1.51,3,3,0,0,1,.39.77l11.1,33.31L71.5,96c5.16.41,5.89.18,6.22,1.18l4.32,13a3,3,0,0,1-4.5,3.57A3,3,0,0,0,82.79,110.9Z"/><rect class="cls-3" height="64" rx="6" ry="6" width="96" x="16" y="32"/><path class="cls-4" d="M16.48,38.48a6,6,0,0,1,6-6c90.87,0,85.55-.65,88,1.53-2.54-2.84,2.67-2-88.47-2a6,6,0,0,0-6,6c0,56-.76,54,2,56.47C15.91,92.12,16.48,94.7,16.48,38.48Z"/><path class="cls-5" d="M109.17,32.89c1.25,2,.89-1.4.89,55.13a6,6,0,0,1-6,6c-90.57,0-85.06.38-87.13-.89A6,6,0,0,0,22,96h84a6,6,0,0,0,6-6V38A6,6,0,0,0,109.17,32.89Z"/><path class="cls-6" d="M107.55,87.55a4,4,0,0,1-4,4c-86.26,0-80.94.43-82.58-1,1.73,2-3.54,1.42,83,1.42a4,4,0,0,0,4-4c0-51.85.57-49.33-1.42-51C108,38.58,107.55,35.36,107.55,87.55Z"/><path class="cls-7" d="M21.71,91.28C20.68,89.8,21,93.06,21,41a4,4,0,0,1,4-4c86.33,0,80.79-.33,82.29.72C105.56,35.27,110.24,36,24,36a4,4,0,0,0-4,4C20,91.36,19.3,89.59,21.71,91.28Z"/><path class="cls-1" d="M80,34H48a2,2,0,0,1,0-4H80A2,2,0,0,1,80,34Z"/><path class="cls-2" d="M81,30.3a2,2,0,0,1-1.7,3c-34.18,0-32.24.19-33-.3A2,2,0,0,0,48,34H80A2,2,0,0,0,81,30.3Z"/><path class="cls-1" d="M68,98H60a2,2,0,0,1,0-4h8A2,2,0,0,1,68,98Z"/><path class="cls-2" d="M69.11,94.34a2,2,0,0,1-1.66,3.11c-8.1,0-8.33.19-9.11-.34.79,1.18,1.25.89,9.66.89A2,2,0,0,0,69.11,94.34Z"/><rect class="cls-8" height="88" rx="4" ry="4" transform="translate(0 128) rotate(-90)" width="56" x="36" y="20"/></g></svg>