<?xml version="1.0" ?><!DOCTYPE svg  PUBLIC '-//W3C//DTD SVG 1.1//EN'  'http://www.w3.org/Graphics/SVG/1.1/DTD/svg11.dtd'><svg enable-background="new 0 0 91 91" height="91px" id="Layer_1" version="1.1" viewBox="0 0 91 91" width="91px" xml:space="preserve" xmlns="http://www.w3.org/2000/svg" xmlns:xlink="http://www.w3.org/1999/xlink"><g><g><g><g><path d="M69.973,66.583c0,11.735-11.299,21.247-25.253,21.247h-0.717c-13.946,0-25.249-9.512-25.249-21.247      V54.131c0-11.729,11.303-21.247,25.249-21.247h0.717c13.954,0,25.253,9.519,25.253,21.247V66.583z" fill="#F4767A"/><path d="M44.72,90.343h-0.717c-15.308,0-27.762-10.659-27.762-23.76V54.131c0-13.102,12.454-23.76,27.762-23.76      h0.717c15.31,0,27.766,10.658,27.766,23.76v12.452C72.485,79.684,60.029,90.343,44.72,90.343z M44.003,35.396      c-12.537,0-22.736,8.404-22.736,18.734v12.452c0,10.33,10.199,18.734,22.736,18.734h0.717c12.539,0,22.74-8.404,22.74-18.734      V54.131c0-10.33-10.201-18.734-22.74-18.734H44.003z" fill="#454B53"/></g><path d="M63.867,41.111c-1.388,0-2.513-1.125-2.513-2.514V19.855c0-7.539-7.5-13.672-16.72-13.672h-0.543     c-9.222,0-16.724,6.133-16.724,13.672v18.742c0,1.389-1.125,2.514-2.513,2.514s-2.513-1.125-2.513-2.514V19.855     c0-10.31,9.757-18.697,21.749-18.697h0.543c11.99,0,21.745,8.388,21.745,18.697v18.742C66.38,39.986,65.255,41.111,63.867,41.111     z" fill="#454B53"/><path d="M44.363,71.913c-1.388,0-2.513-1.125-2.513-2.513V53.119c0-1.388,1.125-2.513,2.513-2.513     s2.513,1.125,2.513,2.513V69.4C46.876,70.788,45.751,71.913,44.363,71.913z" fill="#454B53"/></g></g></g></svg>