<?xml version="1.0" ?><svg viewBox="0 0 128 128" xmlns="http://www.w3.org/2000/svg"><defs><style>.cls-1{fill:#e8bc91;}.cls-2{fill:#efd3b6;}.cls-3{fill:#e0a66d;}.cls-4{fill:#23a859;}.cls-5{fill:#4fb97a;}.cls-6{fill:#299455;}.cls-7{fill:#fff;}</style></defs><title/><g data-name="15 Formula" id="_15_Formula"><rect class="cls-1" height="64" rx="6" ry="6" width="96" x="16" y="32"/><path class="cls-2" d="M16.82,38.82a6,6,0,0,1,6-6c91,0,85.45-.58,87.81,1.37A6,6,0,0,0,106,32H22a6,6,0,0,0-6,6V90a6,6,0,0,0,2.19,4.63C16.3,92.35,16.82,95.15,16.82,38.82Z"/><path class="cls-3" d="M109,32.82c1.14,2,.82-1.67.82,55a6,6,0,0,1-6,6c-90.65,0-85,.35-87-.82A6,6,0,0,0,22,96h84a6,6,0,0,0,6-6V38A6,6,0,0,0,109,32.82Z"/><rect class="cls-4" height="88" rx="4" ry="4" transform="translate(128) rotate(90)" width="56" x="36" y="20"/><path class="cls-5" d="M106.57,37c1.34,1.58,1-1.74,1,50.57a4,4,0,0,1-4,4c-86.26,0-80.93.43-82.57-1,1.73,2-3.5,1.43,83,1.43a4,4,0,0,0,4-4C108,36,108.54,38.63,106.57,37Z"/><path class="cls-6" d="M20.94,40.94a4,4,0,0,1,4-4c86.42,0,80.8-.34,82.31.75A4,4,0,0,0,104,36H24a4,4,0,0,0-4,4c0,51.58-.68,49.56,1.69,51.25C20.62,89.76,20.94,93,20.94,40.94Z"/><path class="cls-7" d="M50.83,75.41l-6.67-6.67A2,2,0,0,1,47,65.92l4.25,4.25,4.67-16.7A2,2,0,0,1,57.83,52H82.42a2,2,0,0,1,0,4H59.35L54.17,74.54A2,2,0,0,1,50.83,75.41Z"/><path class="cls-7" d="M73.15,67.32,78.42,62a2,2,0,0,0-2.83-2.83l-5.27,5.27-5.27-5.27A2,2,0,0,0,62.22,62l5.27,5.27-5.27,5.27a2,2,0,0,0,2.83,2.83l5.27-5.27,5.27,5.27a2,2,0,0,0,2.83-2.83Z"/></g></svg>