<?xml version="1.0" ?><!DOCTYPE svg  PUBLIC '-//W3C//DTD SVG 1.1//EN'  'http://www.w3.org/Graphics/SVG/1.1/DTD/svg11.dtd'><svg enable-background="new 0 0 91 91" height="91px" id="Layer_1" version="1.1" viewBox="0 0 91 91" width="91px" xml:space="preserve" xmlns="http://www.w3.org/2000/svg" xmlns:xlink="http://www.w3.org/1999/xlink"><g><path d="M40.571,45.08c-3.717,3.278-8.588,5.287-13.924,5.287c-5.283,0-10.256-1.973-13.959-5.199   c-0.033,0.02-0.347,0.053-0.383,0.066C6.201,48.122,2.252,53.111,2.252,59.282v20.854h48.107V59.281   C50.359,53.132,46.784,47.966,40.571,45.08z" fill="#E0F1F8"/><rect fill="#FDE497" height="10.05" width="37.32" x="52.502" y="17.884"/><rect fill="#FDE497" height="10.05" width="37.32" x="52.502" y="36.309"/><rect fill="#FDE497" height="10.05" width="32.295" x="57.527" y="54.733"/><rect fill="#FDE497" height="10.05" width="32.295" x="57.527" y="71.483"/><g><path d="M45.289,31.041c0,10.456-8.421,18.93-18.814,18.93c-10.384,0-18.802-8.474-18.802-18.93    c0-10.455,8.418-18.936,18.802-18.936C36.868,12.105,45.289,20.586,45.289,31.041z" fill="#B0E0D4"/><path d="M26.475,52.482c-11.753,0-21.314-9.618-21.314-21.441c0-11.826,9.562-21.447,21.314-21.447    c11.76,0,21.327,9.621,21.327,21.447C47.802,42.864,38.234,52.482,26.475,52.482z M26.475,14.619    c-8.981,0-16.289,7.367-16.289,16.422c0,9.053,7.308,16.416,16.289,16.416c8.989,0,16.302-7.363,16.302-16.416    C42.776,21.986,35.464,14.619,26.475,14.619z" fill="#454B53"/></g><path d="M49.804,81.39c-1.388,0-2.513-1.125-2.513-2.513V55.722c0-4.724-2.278-7.743-7.39-9.79   c-1.288-0.516-1.914-1.979-1.397-3.267c0.515-1.288,1.976-1.915,3.267-1.398c6.997,2.804,10.546,7.667,10.546,14.455v23.155   C52.316,80.265,51.191,81.39,49.804,81.39z" fill="#454B53"/><path d="M3.453,81.39c-1.388,0-2.513-1.125-2.513-2.513v-23.16c0-4.604,1.824-10.846,10.517-14.439   c1.278-0.529,2.752,0.079,3.282,1.361c0.53,1.283-0.08,2.752-1.362,3.282c-4.987,2.062-7.411,5.267-7.411,9.796v23.16   C5.966,80.265,4.841,81.39,3.453,81.39z" fill="#454B53"/><path d="M88.397,21.467H53.546c-1.388,0-2.513-1.125-2.513-2.513s1.125-2.513,2.513-2.513h34.852   c1.388,0,2.513,1.125,2.513,2.513S89.785,21.467,88.397,21.467z" fill="#454B53"/><path d="M88.397,39.306H53.546c-1.388,0-2.513-1.125-2.513-2.513s1.125-2.513,2.513-2.513h34.852   c1.388,0,2.513,1.125,2.513,2.513S89.785,39.306,88.397,39.306z" fill="#454B53"/><path d="M88.397,57.148H58.525c-1.388,0-2.513-1.125-2.513-2.513s1.125-2.513,2.513-2.513h29.872   c1.388,0,2.513,1.125,2.513,2.513S89.785,57.148,88.397,57.148z" fill="#454B53"/><path d="M88.397,74.991H58.525c-1.388,0-2.513-1.125-2.513-2.513s1.125-2.513,2.513-2.513h29.872   c1.388,0,2.513,1.125,2.513,2.513S89.785,74.991,88.397,74.991z" fill="#454B53"/></g></svg>