<?xml version="1.0" ?><svg data-name="Layer 1" id="Layer_1" viewBox="0 0 256 256" xmlns="http://www.w3.org/2000/svg"><defs><style>.cls-1{fill:#effafe;}.cls-2{fill:#eb5639;}.cls-3{fill:#fd0;}.cls-4{fill:#efc803;}.cls-5{fill:#d84936;}.cls-6{fill:#e4ebed;}.cls-7{fill:#263238;}.cls-8{fill:#40bdff;}</style></defs><title/><path class="cls-1" d="M164.29,171v7.4h61.43V171a26,26,0,0,0-26-26h-9.4A26,26,0,0,0,164.29,171Z"/><path class="cls-1" d="M193.27,141h3.52a16.71,16.71,0,1,0-3.57,0Z"/><path class="cls-2" d="M236,91H153a8,8,0,0,0-8,8v88a8,8,0,0,0,8,8h83a8,8,0,0,0,8-8V99A8,8,0,0,0,236,91Zm-56.17,50.05a20.71,20.71,0,1,1,24.35,0l-.85.62,1,.27a30,30,0,0,1,22.37,29v9.4a2,2,0,0,1-2,2H159.29a2,2,0,0,1-2-2V171a30,30,0,0,1,22.37-29l1-.27Z"/><path class="cls-1" d="M65.27,141h3.52a16.71,16.71,0,1,0-3.57,0Z"/><path class="cls-3" d="M116,187V99a8,8,0,0,0-8-8H25a8,8,0,0,0-8,8v88a8,8,0,0,0,8,8h83A8,8,0,0,0,116,187ZM51.83,141.05a20.71,20.71,0,1,1,24.35,0l-.85.62,1,.27a30,30,0,0,1,22.37,29v9.4a2,2,0,0,1-2,2H31.29a2,2,0,0,1-2-2V171a30,30,0,0,1,22.37-29l1-.27Z"/><path class="cls-4" d="M108,91h-5a8,8,0,0,1,8,8v88a8,8,0,0,1-8,8h5a8,8,0,0,0,8-8V99A8,8,0,0,0,108,91Z"/><path class="cls-4" d="M108,91h-5a8,8,0,0,1,8,8v88a8,8,0,0,1-8,8h5a8,8,0,0,0,8-8V99A8,8,0,0,0,108,91Z"/><path class="cls-5" d="M236,91h-5a8,8,0,0,1,8,8v88a8,8,0,0,1-8,8h5a8,8,0,0,0,8-8V99A8,8,0,0,0,236,91Z"/><path class="cls-1" d="M36.29,171v7.4H97.71V171a26,26,0,0,0-26-26H62.3A26,26,0,0,0,36.29,171Z"/><path class="cls-6" d="M67,107.63a16.64,16.64,0,0,0-4,.5,16.68,16.68,0,0,1,0,32.41,16.84,16.84,0,0,0,2.21.4h3.57A16.71,16.71,0,0,0,67,107.63Z"/><path class="cls-6" d="M71.7,145h-8a26,26,0,0,1,26,26v7.4h8V171A26,26,0,0,0,71.7,145Z"/><path class="cls-6" d="M195,107.63a16.64,16.64,0,0,0-4,.5,16.68,16.68,0,0,1,0,32.41,16.84,16.84,0,0,0,2.21.4h3.57A16.71,16.71,0,0,0,195,107.63Z"/><path class="cls-6" d="M199.7,145h-8a26,26,0,0,1,26,26v7.4h8V171A26,26,0,0,0,199.7,145Z"/><path class="cls-7" d="M47.23,70.77l10,10a2.5,2.5,0,0,0,3.54,0l20-20a2.5,2.5,0,1,0-3.54-3.54L59,75.46l-8.23-8.23a2.5,2.5,0,0,0-3.54,3.54Z"/><path class="cls-7" d="M76.47,141.46a21.21,21.21,0,1,0-24.94,0A30.56,30.56,0,0,0,28.79,171v9.4a2.5,2.5,0,0,0,2.5,2.5H96.71a2.5,2.5,0,0,0,2.5-2.5V171A30.56,30.56,0,0,0,76.47,141.46ZM47.79,124.34a16.21,16.21,0,1,1,17.94,16.11H62.27A16.23,16.23,0,0,1,47.79,124.34Zm46.42,53.53H33.79V171A25.54,25.54,0,0,1,59.3,145.45h2.81c.62.06,1.25.1,1.89.1s1.27,0,1.89-.1H68.7A25.54,25.54,0,0,1,94.21,171Z"/><path class="cls-7" d="M120.5,187V99A12.51,12.51,0,0,0,108,86.5H20A12.51,12.51,0,0,0,7.5,99v88A12.51,12.51,0,0,0,20,199.5h88A12.51,12.51,0,0,0,120.5,187Zm-108,0V99A7.51,7.51,0,0,1,20,91.5h88a7.51,7.51,0,0,1,7.5,7.5v88a7.51,7.51,0,0,1-7.5,7.5H20A7.51,7.51,0,0,1,12.5,187Z"/><path class="cls-7" d="M204.47,141.46a21.21,21.21,0,1,0-24.94,0A30.56,30.56,0,0,0,156.79,171v9.4a2.5,2.5,0,0,0,2.5,2.5h65.43a2.5,2.5,0,0,0,2.5-2.5V171A30.56,30.56,0,0,0,204.47,141.46Zm-28.68-17.12a16.21,16.21,0,1,1,17.94,16.11h-3.46A16.23,16.23,0,0,1,175.79,124.34Zm46.42,53.53H161.79V171a25.54,25.54,0,0,1,25.51-25.51h2.81c.62.06,1.25.1,1.89.1s1.27,0,1.89-.1h2.81A25.54,25.54,0,0,1,222.21,171Z"/><path class="cls-7" d="M236,86.5H148A12.51,12.51,0,0,0,135.5,99v88A12.51,12.51,0,0,0,148,199.5h88A12.51,12.51,0,0,0,248.5,187V99A12.51,12.51,0,0,0,236,86.5ZM243.5,187a7.51,7.51,0,0,1-7.5,7.5H148a7.51,7.51,0,0,1-7.5-7.5V99a7.51,7.51,0,0,1,7.5-7.5h88a7.51,7.51,0,0,1,7.5,7.5Z"/><path class="cls-7" d="M180.23,80.77a2.5,2.5,0,0,0,3.54,0L192,72.54l8.23,8.23a2.5,2.5,0,0,0,3.54-3.54L195.54,69l8.23-8.23a2.5,2.5,0,0,0-3.54-3.54L192,65.46l-8.23-8.23a2.5,2.5,0,1,0-3.54,3.54L188.46,69l-8.23,8.23A2.5,2.5,0,0,0,180.23,80.77Z"/><path class="cls-8" d="M29,62H25V58a1,1,0,0,0-2,0v4H19a1,1,0,0,0,0,2h4v4a1,1,0,0,0,2,0V64h4a1,1,0,0,0,0-2Z"/><path class="cls-8" d="M27,221.95a6,6,0,1,1,6-6A6,6,0,0,1,27,221.95Zm0-10a4,4,0,1,0,4,4A4,4,0,0,0,27,211.95Z"/><path class="cls-3" d="M85,240a6,6,0,1,1,6-6A6,6,0,0,1,85,240Zm0-10a4,4,0,1,0,4,4A4,4,0,0,0,85,230Z"/><path class="cls-3" d="M108,72a6,6,0,1,1,6-6A6,6,0,0,1,108,72Zm0-10a4,4,0,1,0,4,4A4,4,0,0,0,108,62Z"/><path class="cls-8" d="M211,220.95h-2.59l1.83-1.83a1,1,0,0,0-1.41-1.41L207,219.53v-2.59a1,1,0,0,0-2,0v2.59l-1.83-1.83a1,1,0,0,0-1.41,1.41l1.83,1.83H201a1,1,0,0,0,0,2h2.59l-1.83,1.83a1,1,0,0,0,1.41,1.41l1.83-1.83v2.59a1,1,0,0,0,2,0v-2.59l1.83,1.83a1,1,0,0,0,1.41-1.41l-1.83-1.83H211a1,1,0,0,0,0-2Z"/></svg>