<?xml version="1.0" ?><!DOCTYPE svg  PUBLIC '-//W3C//DTD SVG 1.1//EN'  'http://www.w3.org/Graphics/SVG/1.1/DTD/svg11.dtd'><svg enable-background="new 0 0 91 91" height="91px" id="Layer_1" version="1.1" viewBox="0 0 91 91" width="91px" xml:space="preserve" xmlns="http://www.w3.org/2000/svg" xmlns:xlink="http://www.w3.org/1999/xlink"><g><g><g><path d="M58.633,80.405H42.377c-1.387,0-2.512-1.125-2.512-2.513V13.605c0-1.388,1.125-2.513,2.512-2.513h16.256     c1.388,0,2.513,1.125,2.513,2.513s-1.125,2.513-2.513,2.513H44.891V75.38h13.742c1.388,0,2.513,1.125,2.513,2.513     S60.021,80.405,58.633,80.405z" fill="#454B53"/><path d="M58.633,48.262h-26.93c-1.389,0-2.514-1.125-2.514-2.513s1.125-2.513,2.514-2.513h26.93     c1.388,0,2.513,1.125,2.513,2.513S60.021,48.262,58.633,48.262z" fill="#454B53"/><g><path d="M69.096,67.433c5.779,0,10.465,4.685,10.465,10.464s-4.686,10.46-10.465,10.46      c-5.776,0-10.465-4.681-10.465-10.46S63.319,67.433,69.096,67.433z" fill="#E0F1F8"/><path d="M69.096,90.869c-7.155,0-12.977-5.819-12.977-12.973c0-7.155,5.821-12.977,12.977-12.977      c7.156,0,12.978,5.821,12.978,12.977C82.073,85.05,76.252,90.869,69.096,90.869z M69.096,69.945      c-4.385,0-7.951,3.566-7.951,7.951c0,4.382,3.566,7.947,7.951,7.947s7.952-3.565,7.952-7.947      C77.048,73.512,73.48,69.945,69.096,69.945z" fill="#454B53"/></g><g><path d="M69.096,35.403c5.779,0,10.465,4.683,10.465,10.464c0,5.778-4.686,10.457-10.465,10.457      c-5.776,0-10.465-4.679-10.465-10.457C58.631,40.086,63.319,35.403,69.096,35.403z" fill="#E0F1F8"/><path d="M69.096,58.837c-7.155,0-12.977-5.818-12.977-12.97c0-7.155,5.821-12.977,12.977-12.977      c7.156,0,12.978,5.821,12.978,12.977C82.073,53.019,76.252,58.837,69.096,58.837z M69.096,37.916      c-4.385,0-7.951,3.566-7.951,7.951c0,4.381,3.566,7.944,7.951,7.944s7.952-3.563,7.952-7.944      C77.048,41.482,73.48,37.916,69.096,37.916z" fill="#454B53"/></g><g><path d="M69.096,3.143c5.779,0,10.465,4.684,10.465,10.466c0,5.775-4.686,10.459-10.465,10.459      c-5.776,0-10.465-4.684-10.465-10.459C58.631,7.826,63.319,3.143,69.096,3.143z" fill="#E0F1F8"/><path d="M69.096,26.58c-7.155,0-12.977-5.819-12.977-12.972c0-7.156,5.821-12.979,12.977-12.979      c7.156,0,12.978,5.822,12.978,12.979C82.073,20.761,76.252,26.58,69.096,26.58z M69.096,5.655c-4.385,0-7.951,3.567-7.951,7.953      c0,4.382,3.566,7.946,7.951,7.946s7.952-3.564,7.952-7.946C77.048,9.223,73.48,5.655,69.096,5.655z" fill="#454B53"/></g><g><rect fill="#9ABFDA" height="26.672" width="21.541" x="10.162" y="32.527"/><path d="M31.703,61.712H10.162c-1.387,0-2.512-1.125-2.512-2.513V32.527c0-1.388,1.125-2.513,2.512-2.513h21.541      c1.387,0,2.512,1.125,2.512,2.513v26.672C34.215,60.587,33.09,61.712,31.703,61.712z M12.676,56.687h16.514V35.04H12.676V56.687      z" fill="#454B53"/></g></g></g></g></svg>