<?xml version="1.0" ?><!DOCTYPE svg  PUBLIC '-//W3C//DTD SVG 1.1//EN'  'http://www.w3.org/Graphics/SVG/1.1/DTD/svg11.dtd'><svg enable-background="new 0 0 91 91" height="91px" id="Layer_1" version="1.1" viewBox="0 0 91 91" width="91px" xml:space="preserve" xmlns="http://www.w3.org/2000/svg" xmlns:xlink="http://www.w3.org/1999/xlink"><g><g><g><g><path d="M28.622,57.047c0,0-17.626-0.291-19.526,18.244c0,0-1.38,5.074-5.971,5.865      c-4.591,0.795,26.89,13.018,35.037-14.707" fill="#FDE497"/><path d="M14.534,87.008c-1.774,0-3.257-0.141-4.291-0.279c-3.01-0.404-10.019-1.721-10.085-5.22      c-0.022-1.185,0.753-2.519,2.538-2.828c2.567-0.442,3.687-3.214,3.929-3.908c1.804-16.259,15.187-20.351,22.039-20.238      c1.387,0.022,2.494,1.166,2.471,2.554c-0.022,1.385-1.185,2.48-2.546,2.471c-0.621-0.012-15.358,0.043-16.993,15.989      c-0.014,0.136-0.039,0.271-0.075,0.403c-0.049,0.181-0.872,3.097-3.245,5.316c3.489,0.81,8.848,1.283,14.01-0.4      c6.62-2.157,11.15-7.246,13.465-15.127c0.391-1.33,1.785-2.094,3.119-1.701c1.331,0.391,2.093,1.787,1.702,3.119      C35.526,84.33,22.281,87.007,14.534,87.008z" fill="#454B53"/></g><g><path d="M28.622,57.047L76.355,8.596c2.58-2.627,6.843-2.656,9.47-0.074c2.626,2.589,2.659,6.854,0.07,9.476      L38.161,66.449L28.622,57.047z" fill="#9ABFDA"/><path d="M38.161,68.962c-0.66,0-1.293-0.26-1.764-0.724l-9.54-9.402c-0.988-0.975-1-2.564-0.026-3.553      l47.734-48.45c1.734-1.767,4.064-2.74,6.559-2.74c2.437,0,4.73,0.937,6.461,2.636c1.751,1.727,2.724,4.033,2.742,6.499      c0.02,2.468-0.92,4.788-2.645,6.535l-47.732,48.45c-0.468,0.475-1.105,0.744-1.771,0.748      C38.173,68.962,38.167,68.962,38.161,68.962z M32.174,57.021l5.961,5.875l45.97-46.661c0.781-0.792,1.207-1.846,1.198-2.969      c-0.009-1.124-0.45-2.174-1.243-2.955c-0.781-0.768-1.824-1.193-2.936-1.193c-1.135,0-2.191,0.44-2.977,1.239L32.174,57.021z" fill="#454B53"/></g><path d="M47.423,59.561c-0.637,0-1.274-0.24-1.763-0.723l-9.546-9.402c-0.989-0.975-1-2.564-0.027-3.554     c0.974-0.987,2.565-1,3.553-0.026l9.545,9.402c0.989,0.975,1.001,2.564,0.027,3.553C48.721,59.311,48.072,59.561,47.423,59.561z" fill="#454B53"/></g></g></g></svg>