<?xml version="1.0" ?><!DOCTYPE svg  PUBLIC '-//W3C//DTD SVG 1.1//EN'  'http://www.w3.org/Graphics/SVG/1.1/DTD/svg11.dtd'><svg enable-background="new 0 0 91 91" height="91px" id="Layer_1" version="1.1" viewBox="0 0 91 91" width="91px" xml:space="preserve" xmlns="http://www.w3.org/2000/svg" xmlns:xlink="http://www.w3.org/1999/xlink"><g><path d="M85.498,5.822c-3.289-3.294-9.061-2.523-12.367,0.787L56.318,23.383L25.127,11.73   c-2.984-0.776-5.991-1.775-9.696,1.944c-1.888,1.89-5.818,5.829,0,11.659l21.383,17.512L22.9,56.729L9.921,53.484   c-1.933-0.497-3.226-0.11-4.213,0.98c-0.498,0.624-4.113,3.305-1.596,5.828l16.896,9.943l9.946,16.897   c1.824,1.825,3.523,0.686,5.837-1.515c1.468-1.473,1.149-2.229,0.708-4.375l-2.933-12.891L48.385,54.49l17.481,21.384   c5.822,5.828,9.751,1.892,11.644,0c3.703-3.716,2.708-6.729,1.936-9.718L67.885,34.914l16.75-16.804   C87.939,14.799,88.786,9.115,85.498,5.822z" fill="#E0F1F8"/><g><g><polygon fill="#9ABFDA" points="56.018,23.383 47.828,21.057 30.356,37.689 36.513,42.844    "/><polygon fill="#9ABFDA" points="67.586,34.917 70.666,42.727 53.321,59.24 48.083,54.49    "/></g></g><path d="M33.029,90.527c-1.329,0-2.553-0.552-3.638-1.637c-0.148-0.149-0.277-0.316-0.384-0.497l-9.619-16.343   L3.046,62.434c-0.182-0.107-0.35-0.236-0.499-0.386c-1.342-1.346-1.615-2.759-1.608-3.708c0.019-2.512,1.93-4.371,2.849-5.266   c0.09-0.088,0.167-0.16,0.222-0.219c1.734-1.919,3.936-2.494,6.723-1.778l11.601,2.9l10.975-10.952L14.05,27.255   c-0.064-0.053-0.126-0.109-0.184-0.168c-5.025-5.036-5.025-10.141,0.001-15.17c2.282-2.291,4.706-3.405,7.407-3.405   c1.582,0,3.026,0.38,4.301,0.715l0.372,0.098c0.083,0.021,0.164,0.047,0.244,0.077l29.696,11.095L71.57,4.851   c2.27-2.272,5.536-3.63,8.736-3.63c2.773,0,5.312,1.01,7.144,2.846c4.46,4.464,3.155,11.773-0.862,15.798L70.961,35.542   L81.97,65.294c0.029,0.079,0.055,0.159,0.075,0.242l0.099,0.376c0.788,3.019,1.868,7.151-2.68,11.716   c-1.332,1.332-3.797,3.794-7.454,3.794c0,0,0,0-0.001,0c-2.6,0-5.192-1.275-7.707-3.792c-0.058-0.058-0.113-0.119-0.166-0.184   L48.396,58.193L37.487,69.138l2.741,12.088c0.42,1.976,0.817,3.842-1.483,6.148C37.043,88.993,35.244,90.527,33.029,90.527z    M5.911,58.354l16.552,9.741c0.364,0.214,0.667,0.517,0.881,0.881l9.747,16.56c0.261-0.093,0.856-0.455,2.184-1.717   c0.257-0.259,0.322-0.391,0.324-0.396c-0.005-0.099-0.13-0.689-0.231-1.163l-0.108-0.513l-2.921-12.841   c-0.189-0.832,0.061-1.702,0.663-2.306l13.818-13.863c0.495-0.498,1.171-0.765,1.882-0.728c0.701,0.034,1.356,0.364,1.802,0.909   l17.399,21.284c1.515,1.494,2.896,2.251,4.107,2.251c1.601,0,2.948-1.348,3.932-2.332c2.544-2.552,2.111-4.209,1.395-6.953   l-0.069-0.266L65.749,35.776c-0.336-0.909-0.114-1.931,0.57-2.616l16.75-16.804c2.278-2.282,3.192-6.447,0.864-8.778   c-1.145-1.148-2.605-1.389-3.627-1.389c-1.91,0-3.863,0.814-5.223,2.176L58.268,25.142c-0.688,0.687-1.713,0.909-2.624,0.568   L24.311,14.034c-1.079-0.284-2.098-0.552-3.037-0.552c-0.908,0-2.171,0.221-3.889,1.946c-2.366,2.367-3.756,4.335-0.086,8.064   l21.284,17.431c0.543,0.444,0.873,1.098,0.907,1.8c0.035,0.701-0.229,1.385-0.726,1.88L24.85,58.487   c-0.617,0.616-1.512,0.864-2.358,0.652l-12.98-3.245c-0.365-0.094-0.67-0.139-0.923-0.139c-0.383,0-0.58,0.086-0.838,0.369   c-0.119,0.135-0.289,0.31-0.498,0.513C6.208,57.654,5.941,58.131,5.911,58.354z" fill="#454B53"/><path d="M48.354,57.127c-0.636,0-1.272-0.242-1.758-0.729c-0.969-0.97-0.969-2.543,0-3.513l19.729-19.729   c0.97-0.971,2.544-0.971,3.514,0c0.972,0.97,0.972,2.542,0,3.513L50.109,56.398C49.625,56.885,48.989,57.127,48.354,57.127z" fill="#454B53"/><path d="M36.528,45.855c-0.636,0-1.271-0.242-1.757-0.727c-0.971-0.971-0.971-2.544,0-3.514l19.982-19.987   c0.971-0.972,2.544-0.971,3.514-0.001c0.972,0.971,0.972,2.543,0.001,3.514L38.286,45.127C37.8,45.612,37.164,45.855,36.528,45.855   z" fill="#454B53"/></g></svg>