<?xml version="1.0" ?><svg id="Layer_1" style="enable-background:new 0 0 40 40;" version="1.1" viewBox="0 0 40 40" xml:space="preserve" xmlns="http://www.w3.org/2000/svg" xmlns:xlink="http://www.w3.org/1999/xlink"><style type="text/css">
	.st0{fill:none;stroke:#C0C3CD;stroke-width:2;stroke-linecap:round;stroke-linejoin:round;stroke-miterlimit:10;}
	.st1{fill:#EBEFF2;stroke:#C0C3CD;stroke-width:2;stroke-linecap:round;stroke-linejoin:round;stroke-miterlimit:10;}
	.st2{fill:#F9E0B2;stroke:#FCB416;stroke-width:2;stroke-linecap:round;stroke-linejoin:round;stroke-miterlimit:10;}
	.st3{fill:none;stroke:#408ECC;stroke-width:2;stroke-linecap:round;stroke-linejoin:round;stroke-miterlimit:10;}
	.st4{fill:none;stroke:#35B8B2;stroke-width:2;stroke-linecap:round;stroke-linejoin:round;stroke-miterlimit:10;}
	.st5{fill:#CBE6F8;stroke:#408ECC;stroke-width:2;stroke-linecap:round;stroke-linejoin:round;stroke-miterlimit:10;}
	.st6{fill:none;stroke:#FCB416;stroke-width:2;stroke-linecap:round;stroke-linejoin:round;stroke-miterlimit:10;}
	.st7{fill:#B1E0E0;stroke:#35B8B2;stroke-width:2;stroke-linecap:round;stroke-linejoin:round;stroke-miterlimit:10;}
	.st8{fill:none;stroke:#35B8B2;stroke-width:2;stroke-miterlimit:10;}
	.st9{fill:#EBEFF2;stroke:#C0C3CD;stroke-width:2;stroke-miterlimit:10;}
	.st10{fill:none;stroke:#000000;stroke-width:2;stroke-linecap:round;stroke-linejoin:round;stroke-miterlimit:10;}
</style><g><path class="st7" d="M20,8c-4.6099854,0-8.3699951,3.75-8.3699951,8.3699951C11.6300049,20.9800415,20,32,20,32   s8.3699951-11.0199585,8.3699951-15.6300049C28.3699951,11.75,24.6199951,8,20,8z M20,20   c-1.9500122,0-3.5299683-1.5899658-3.5299683-3.5499878c0-1.9500122,1.5799561-3.5299683,3.5299683-3.5299683   c1.960022,0,3.5400391,1.5799561,3.5400391,3.5299683C23.5400391,18.4100342,21.960022,20,20,20z"/><path class="st4" d="M23.5400391,16.4500122C23.5400391,18.4100342,21.960022,20,20,20   c-1.9500122,0-3.5299683-1.5899658-3.5299683-3.5499878c0-1.9500122,1.5799561-3.5299683,3.5299683-3.5299683   C21.960022,12.9200439,23.5400391,14.5,23.5400391,16.4500122z"/><path class="st4" d="M23.5400391,16.4500122C23.5400391,18.4100342,21.960022,20,20,20   c-1.9500122,0-3.5299683-1.5899658-3.5299683-3.5499878c0-1.9500122,1.5799561-3.5299683,3.5299683-3.5299683   C21.960022,12.9200439,23.5400391,14.5,23.5400391,16.4500122z"/></g></svg>