<?xml version="1.0" ?><!DOCTYPE svg  PUBLIC '-//W3C//DTD SVG 1.1//EN'  'http://www.w3.org/Graphics/SVG/1.1/DTD/svg11.dtd'><svg enable-background="new 0 0 91 91" height="91px" id="Layer_1" version="1.1" viewBox="0 0 91 91" width="91px" xml:space="preserve" xmlns="http://www.w3.org/2000/svg" xmlns:xlink="http://www.w3.org/1999/xlink"><g><g><g><g><path d="M20.295,62.278H6.264V35.959l79.323,0.002V54.83c0,4.097-3.352,7.448-7.45,7.448h-4.66" fill="#9ABFDA"/><path d="M78.137,64.791h-4.66c-1.388,0-2.513-1.125-2.513-2.513s1.125-2.513,2.513-2.513h4.66      c2.723,0,4.938-2.214,4.938-4.936V38.474L8.777,38.473v21.293h11.518c1.389,0,2.514,1.125,2.514,2.513s-1.125,2.513-2.514,2.513      H6.264c-1.387,0-2.512-1.125-2.512-2.513V35.959c0-0.666,0.265-1.305,0.736-1.776c0.471-0.471,1.109-0.735,1.775-0.735l0,0      l79.323,0.001c1.388,0,2.513,1.125,2.513,2.513V54.83C88.1,60.322,83.631,64.791,78.137,64.791z" fill="#454B53"/></g><g><rect fill="#FDE497" height="25.037" width="51.26" x="20.295" y="10.924"/><path d="M71.555,38.473h-51.26c-1.387,0-2.512-1.125-2.512-2.512V10.924c0-1.387,1.125-2.512,2.512-2.512h51.26      c1.388,0,2.513,1.125,2.513,2.512v25.037C74.067,37.348,72.942,38.473,71.555,38.473z M22.809,33.447h46.233v-20.01H22.809      V33.447z" fill="#454B53"/></g><path d="M76.057,83.92c-0.803,0-1.594-0.385-2.079-1.1c-5.804-8.531-5.616-21.569-5.195-27.309H22.975     c0.248,5.911,0.121,19.81-5.836,27.441c-0.855,1.093-2.434,1.287-3.527,0.434s-1.288-2.432-0.434-3.525     c5.246-6.721,5.113-21.496,4.619-26.621c-0.068-0.705,0.165-1.406,0.641-1.931c0.477-0.524,1.152-0.823,1.86-0.823h51.257     c0.727,0,1.416,0.314,1.893,0.861c0.479,0.547,0.695,1.275,0.597,1.994c-0.024,0.172-2.281,17.29,4.088,26.652     c0.78,1.146,0.483,2.709-0.664,3.49C77.035,83.778,76.543,83.92,76.057,83.92z" fill="#454B53"/><path d="M40.496,47.178h-4.82c-1.387,0-2.512-1.125-2.512-2.513s1.125-2.513,2.512-2.513h4.82     c1.388,0,2.513,1.125,2.513,2.513S41.884,47.178,40.496,47.178z" fill="#454B53"/><path d="M56.174,47.178h-4.822c-1.388,0-2.513-1.125-2.513-2.513s1.125-2.513,2.513-2.513h4.822     c1.388,0,2.513,1.125,2.513,2.513S57.562,47.178,56.174,47.178z" fill="#454B53"/><path d="M30.153,83.92c-1.388,0-2.513-1.125-2.513-2.514v-28.41c0-1.389,1.125-2.514,2.513-2.514     s2.513,1.125,2.513,2.514v28.41C32.666,82.795,31.541,83.92,30.153,83.92z" fill="#454B53"/><path d="M40.667,83.92c-1.388,0-2.513-1.125-2.513-2.514v-28.41c0-1.389,1.125-2.514,2.513-2.514     s2.513,1.125,2.513,2.514v28.41C43.18,82.795,42.055,83.92,40.667,83.92z" fill="#454B53"/><path d="M51.182,83.92c-1.387,0-2.512-1.125-2.512-2.514v-28.41c0-1.389,1.125-2.514,2.512-2.514     c1.389,0,2.514,1.125,2.514,2.514v28.41C53.695,82.795,52.57,83.92,51.182,83.92z" fill="#454B53"/><path d="M61.697,83.92c-1.387,0-2.512-1.125-2.512-2.514v-28.41c0-1.389,1.125-2.514,2.512-2.514     c1.389,0,2.514,1.125,2.514,2.514v28.41C64.211,82.795,63.086,83.92,61.697,83.92z" fill="#454B53"/></g></g></g></svg>