<?xml version="1.0" ?><svg viewBox="0 0 128 128" xmlns="http://www.w3.org/2000/svg"><defs><style>.cls-1{fill:#f2f2f2;}.cls-2{fill:#f7f7f7;}.cls-3{fill:#e6e6e6;}.cls-4{fill:#333;}.cls-5{fill:#7ad0cb;}.cls-6{fill:#4dbab4;}.cls-7{fill:#4d91bb;}.cls-8{fill:#2175aa;}.cls-9{fill:#ffce47;}.cls-10{fill:#f47c27;}.cls-11{fill:#7aaccc;}</style></defs><title/><g data-name="14 Certificate" id="_14_Certificate"><rect class="cls-1" height="64" rx="6" ry="6" width="96" x="16" y="32"/><path class="cls-2" d="M16.41,90.41v-52a6,6,0,0,1,6-6h84a6,6,0,0,1,4,1.56A6,6,0,0,0,106,32H22a6,6,0,0,0-6,6V90a6,6,0,0,0,2,4.44A6,6,0,0,1,16.41,90.41Z"/><path class="cls-3" d="M109,32.82a6,6,0,0,1,.82,3v52a6,6,0,0,1-6,6c-90.65,0-85,.35-87-.82A6,6,0,0,0,22,96h84a6,6,0,0,0,6-6V38A6,6,0,0,0,109,32.82Z"/><path class="cls-3" d="M87.39,87a1.45,1.45,0,0,1,0-2.41c1.71-1.14,2.68-1.51,2.44-2.71l-.43-2.15A1.45,1.45,0,0,1,91.11,78c2,.41,3,.83,3.64-.19L96,76a1.45,1.45,0,0,1,2.41,0c1.14,1.71,1.51,2.68,2.71,2.44,1.65-.33,2.67-.82,3.46,0a1.45,1.45,0,0,1,.4,1.31l-.43,2.15c-.41,2,3.09,2,3.09,3.91s-3.5,1.89-3.09,3.91l.43,2.15a1.45,1.45,0,0,1-.4,1.31c-1.33,1.33-3.81-1.14-5,.58l-1.21,1.82a1.45,1.45,0,0,1-2.41,0l-1.21-1.82a1.45,1.45,0,0,0-1.49-.62l-2.15.43a1.45,1.45,0,0,1-1.71-1.71c.41-2,.83-3-.19-3.64Z"/><polygon class="cls-3" points="102.17 93.06 102.17 94.76 101.08 94.76 101.08 92.78 102.17 93.06"/><path class="cls-4" d="M86,59.94H42a2,2,0,0,1,0-4H86A2,2,0,0,1,86,59.94Z"/><path class="cls-4" d="M74.57,85.91h-21a2,2,0,0,1,0-4h21A2,2,0,0,1,74.57,85.91Z"/><path class="cls-4" d="M86,72.93H42a2,2,0,0,1,0-4H86A2,2,0,0,1,86,72.93Z"/><path class="cls-5" d="M99.55,104.95c-2-1.54-2.84-2.68-3.84-1.89l-2.41,1.89a1.16,1.16,0,0,1-1.87-.91V91.7h10V104A1.16,1.16,0,0,1,99.55,104.95Z"/><path class="cls-6" d="M101.05,91.7v12a1.16,1.16,0,0,1-1.87.91l-2.41-1.89c-1.68-1.32-3.47,3-5.18,1.95a1.16,1.16,0,0,0,1.7.31c3.69-2.89,2.65-2.83,6.26,0a1.16,1.16,0,0,0,1.87-.91V91.7Z"/><path class="cls-7" d="M86.65,86.27a1.45,1.45,0,0,1,0-2.41c1.71-1.14,2.68-1.51,2.44-2.71L88.66,79a1.45,1.45,0,0,1,1.71-1.71c2,.41,3,.83,3.64-.19l1.21-1.82a1.45,1.45,0,0,1,2.41,0c1.14,1.71,1.51,2.68,2.71,2.44l2.15-.43A1.45,1.45,0,0,1,104.19,79c-.41,2-.83,3,.19,3.64l1.82,1.21a1.45,1.45,0,0,1,0,2.41c-1.71,1.14-2.68,1.51-2.44,2.71l.43,2.15a1.45,1.45,0,0,1-1.71,1.71l-2.15-.43c-2-.41-2,3.09-3.91,3.09a1.45,1.45,0,0,1-1.21-.65L94,93c-1.15-1.73-3.59.78-5-.58s1.14-3.81-.58-5Z"/><path class="cls-8" d="M88.31,87.37a9.1,9.1,0,0,1-2.13-1.62A9,9,0,0,1,88.31,87.37ZM98.73,76.94a9.1,9.1,0,0,0-1.62-2.13A9,9,0,0,0,98.73,76.94Zm5.19,5.19c-.8-1.43,1.36-3.74-.49-4.7C104.21,78.93,102,80.86,103.93,82.14Zm2.13,1.62a1.45,1.45,0,0,1-.47,1.89c-2.93,1.95-2.72,1.35-2,4.85a1.45,1.45,0,0,1-.4,1.31c-.78.78-1.8.3-3.46,0-2.18-.44-2.28,4.16-4.6,2.92a1.48,1.48,0,0,0,1.3.79c1.88,0,1.89-3.5,3.91-3.09,1.65.33,2.67.82,3.46,0a1.45,1.45,0,0,0,.4-1.31c-.71-3.5-.92-2.91,2-4.85A1.46,1.46,0,0,0,106.06,83.76ZM88.8,92.07c1,1.83,3.36-.26,4.7.49C92.25,90.68,90.27,92.84,88.8,92.07Z"/><circle class="cls-9" cx="96.42" cy="85.06" r="5.59"/><path class="cls-10" d="M100.18,80.93c4.72,5.19-2.66,12.64-7.88,7.88a5.58,5.58,0,1,0,7.88-7.88Z"/><path class="cls-7" d="M106,32H22a6,6,0,0,0-6,6v6.78h96V38A6,6,0,0,0,106,32Z"/><path class="cls-11" d="M16.41,38.41a6,6,0,0,1,6-6h84a6,6,0,0,1,4,1.56A6,6,0,0,0,106,32H22a6,6,0,0,0-6,6v6.78h.41Z"/><path class="cls-8" d="M109,32.82a6,6,0,0,1,.82,3v8.94H112V38A6,6,0,0,0,109,32.82Z"/></g></svg>