<?xml version="1.0" ?><!DOCTYPE svg  PUBLIC '-//W3C//DTD SVG 1.1//EN'  'http://www.w3.org/Graphics/SVG/1.1/DTD/svg11.dtd'><svg enable-background="new 0 0 91 91" height="91px" id="Layer_1" version="1.1" viewBox="0 0 91 91" width="91px" xml:space="preserve" xmlns="http://www.w3.org/2000/svg" xmlns:xlink="http://www.w3.org/1999/xlink"><g><g><g><g><rect fill="#B0E0D4" height="17.589" width="78.765" x="5.767" y="10.638"/><path d="M84.531,30.739H5.767c-1.388,0-2.513-1.125-2.513-2.513V10.638c0-1.388,1.125-2.513,2.513-2.513h78.765      c1.387,0,2.512,1.125,2.512,2.513v17.589C87.043,29.614,85.918,30.739,84.531,30.739z M8.279,25.714h73.738V13.15H8.279V25.714z      " fill="#454B53"/></g><g><path d="M5.769,28.229v60.224h70.84c4.354,0,7.923-3.566,7.923-7.926V28.229H5.769z" fill="#E0F1F8"/><path d="M76.609,90.966H5.769c-1.388,0-2.513-1.125-2.513-2.513V28.229c0-1.388,1.125-2.513,2.513-2.513h78.763      c1.388,0,2.513,1.125,2.513,2.513v52.298C87.045,86.283,82.363,90.966,76.609,90.966z M8.282,85.94h68.328      c2.982,0,5.41-2.428,5.41-5.413V30.742H8.282V85.94z" fill="#454B53"/></g><path d="M21.619,20.727c-1.388,0-2.513-1.125-2.513-2.513V3.303c0-1.388,1.125-2.513,2.513-2.513     s2.513,1.125,2.513,2.513v14.911C24.131,19.602,23.006,20.727,21.619,20.727z" fill="#454B53"/><path d="M45.15,20.727c-1.388,0-2.513-1.125-2.513-2.513V3.303c0-1.388,1.125-2.513,2.513-2.513     s2.513,1.125,2.513,2.513v14.911C47.663,19.602,46.538,20.727,45.15,20.727z" fill="#454B53"/><path d="M68.684,20.727c-1.388,0-2.513-1.125-2.513-2.513V3.303c0-1.388,1.125-2.513,2.513-2.513     s2.513,1.125,2.513,2.513v14.911C71.196,19.602,70.071,20.727,68.684,20.727z" fill="#454B53"/><path d="M28.728,54.737H16.851c-1.388,0-2.513-1.125-2.513-2.513V40.343c0-1.388,1.125-2.513,2.513-2.513h11.876     c1.388,0,2.513,1.125,2.513,2.513v11.882C31.24,53.612,30.115,54.737,28.728,54.737z M19.364,49.712h6.851v-6.856h-6.851V49.712z     " fill="#454B53"/><path d="M51.092,54.737h-11.88c-1.388,0-2.513-1.125-2.513-2.513V40.343c0-1.388,1.125-2.513,2.513-2.513h11.88     c1.389,0,2.514,1.125,2.514,2.513v11.882C53.605,53.612,52.48,54.737,51.092,54.737z M41.725,49.712h6.855v-6.856h-6.855V49.712z     " fill="#454B53"/><path d="M73.454,54.737H61.576c-1.388,0-2.513-1.125-2.513-2.513V40.343c0-1.388,1.125-2.513,2.513-2.513h11.878     c1.388,0,2.513,1.125,2.513,2.513v11.882C75.967,53.612,74.842,54.737,73.454,54.737z M64.089,49.712h6.853v-6.856h-6.853V49.712     z" fill="#454B53"/><path d="M28.728,78.278H16.851c-1.388,0-2.513-1.125-2.513-2.513v-11.88c0-1.388,1.125-2.513,2.513-2.513h11.876     c1.388,0,2.513,1.125,2.513,2.513v11.88C31.24,77.153,30.115,78.278,28.728,78.278z M19.364,73.253h6.851v-6.854h-6.851V73.253z" fill="#454B53"/><path d="M51.092,78.278h-11.88c-1.388,0-2.513-1.125-2.513-2.513v-11.88c0-1.388,1.125-2.513,2.513-2.513h11.88     c1.389,0,2.514,1.125,2.514,2.513v11.88C53.605,77.153,52.48,78.278,51.092,78.278z M41.725,73.253h6.855v-6.854h-6.855V73.253z" fill="#454B53"/><path d="M73.454,78.278H61.576c-1.388,0-2.513-1.125-2.513-2.513v-11.88c0-1.388,1.125-2.513,2.513-2.513h11.878     c1.388,0,2.513,1.125,2.513,2.513v11.88C75.967,77.153,74.842,78.278,73.454,78.278z M64.089,73.253h6.853v-6.854h-6.853V73.253z     " fill="#454B53"/></g></g></g></svg>