<?xml version="1.0" ?><!DOCTYPE svg  PUBLIC '-//W3C//DTD SVG 1.1//EN'  'http://www.w3.org/Graphics/SVG/1.1/DTD/svg11.dtd'><svg enable-background="new 0 0 91 91" height="91px" id="Layer_1" version="1.1" viewBox="0 0 91 91" width="91px" xml:space="preserve" xmlns="http://www.w3.org/2000/svg" xmlns:xlink="http://www.w3.org/1999/xlink"><g><g><g><g><path d="M49.229,55.066c-0.349,0.914-0.847,1.767-1.57,2.479L18.994,86.214      c-3.167,3.167-8.777,2.686-12.537-1.076l-0.192-0.198c-3.766-3.757-4.253-9.373-1.088-12.538L33.843,43.73      c0.719-0.717,1.57-1.217,2.49-1.563L49.229,55.066z" fill="#9ABFDA"/><path d="M13.707,90.819c-3.256,0-6.546-1.424-9.027-3.905l-0.218-0.225c-2.458-2.451-3.885-5.743-3.886-9.002      c-0.002-2.731,1.001-5.24,2.824-7.063l28.666-28.671c0.926-0.924,2.063-1.643,3.383-2.138c0.924-0.346,1.963-0.123,2.66,0.575      L51.005,53.29c0.7,0.7,0.924,1.746,0.571,2.672c-0.508,1.33-1.232,2.465-2.154,3.374L20.771,87.99      C18.946,89.814,16.438,90.819,13.707,90.819z M35.881,45.27c-0.092,0.076-0.18,0.156-0.264,0.24L6.953,74.178      c-1.119,1.119-1.353,2.524-1.353,3.507c0.001,1.936,0.89,3.932,2.438,5.477l0.221,0.227c1.52,1.52,3.515,2.406,5.447,2.406      c0.982,0,2.389-0.235,3.511-1.356L45.882,55.77c0.083-0.082,0.162-0.168,0.238-0.259L35.881,45.27z" fill="#454B53"/></g><path d="M42.957,50.949c-0.643,0-1.286-0.245-1.776-0.736c-0.981-0.98-0.981-2.571,0-3.553l30.912-30.914     c0.98-0.982,2.572-0.982,3.553,0c0.981,0.98,0.981,2.571,0,3.553L44.733,50.213C44.243,50.704,43.6,50.949,42.957,50.949z" fill="#454B53"/><g><polygon fill="#FDE497" points="78.734,22.396 68.763,12.419 83.307,2.856 88.297,7.846     "/><path d="M78.734,24.909c-0.663,0-1.304-0.263-1.777-0.736l-9.972-9.978c-0.534-0.534-0.799-1.281-0.722-2.032      c0.076-0.752,0.487-1.429,1.119-1.844l14.544-9.563c0.995-0.654,2.313-0.519,3.156,0.323l4.99,4.989      c0.843,0.842,0.978,2.16,0.323,3.156l-9.563,14.551c-0.415,0.632-1.093,1.043-1.844,1.119      C78.904,24.904,78.819,24.909,78.734,24.909z M72.72,12.824l5.61,5.613l6.743-10.262L82.978,6.08L72.72,12.824z" fill="#454B53"/></g></g></g></g></svg>