<?xml version="1.0" ?><!DOCTYPE svg  PUBLIC '-//W3C//DTD SVG 1.1//EN'  'http://www.w3.org/Graphics/SVG/1.1/DTD/svg11.dtd'><svg enable-background="new 0 0 91 91" height="91px" id="Layer_1" version="1.1" viewBox="0 0 91 91" width="91px" xml:space="preserve" xmlns="http://www.w3.org/2000/svg" xmlns:xlink="http://www.w3.org/1999/xlink"><g><g><g><g><polygon fill="#E0F1F8" points="88.157,30.646 45.422,50.945 2.694,30.646 45.422,10.341     "/><path d="M45.422,53.458c-0.369,0-0.736-0.081-1.078-0.243l-42.728-20.3c-0.876-0.416-1.434-1.3-1.435-2.27      c0-0.97,0.558-1.854,1.434-2.27L44.344,8.071c0.682-0.324,1.475-0.324,2.156,0l42.735,20.305c0.876,0.416,1.435,1.3,1.435,2.27      s-0.559,1.854-1.435,2.27L46.5,53.215C46.158,53.377,45.791,53.458,45.422,53.458z M8.548,30.646l36.874,17.519l36.881-17.519      L45.422,13.122L8.548,30.646z" fill="#454B53"/></g><path d="M45.422,70.574c-0.369,0-0.736-0.081-1.078-0.243l-42.728-20.3c-1.253-0.596-1.787-2.095-1.191-3.348     s2.094-1.786,3.348-1.191l41.65,19.788l41.657-19.788c1.256-0.595,2.753-0.062,3.348,1.191c0.595,1.254,0.062,2.752-1.191,3.348     L46.5,70.331C46.158,70.493,45.791,70.574,45.422,70.574z" fill="#454B53"/><path d="M45.422,87.694c-0.369,0-0.737-0.081-1.078-0.243L1.616,67.149c-1.253-0.596-1.787-2.095-1.191-3.348     s2.094-1.786,3.348-1.191l41.65,19.79l41.657-19.79c1.256-0.595,2.753-0.061,3.348,1.191c0.595,1.253,0.062,2.752-1.191,3.348     L46.5,87.451C46.158,87.613,45.791,87.694,45.422,87.694z" fill="#454B53"/></g></g></g></svg>