<?xml version="1.0" ?><!DOCTYPE svg  PUBLIC '-//W3C//DTD SVG 1.1//EN'  'http://www.w3.org/Graphics/SVG/1.1/DTD/svg11.dtd'><svg enable-background="new 0 0 91 91" height="91px" id="Layer_1" version="1.1" viewBox="0 0 91 91" width="91px" xml:space="preserve" xmlns="http://www.w3.org/2000/svg" xmlns:xlink="http://www.w3.org/1999/xlink"><g><circle cx="45.797" cy="46.069" fill="#FDE497" r="33.947"/><g><g><path d="M46.027,90.339c-24.588,0-44.594-20.007-44.594-44.599c0-24.591,20.006-44.597,44.594-44.597     c24.592,0,44.598,20.006,44.598,44.597C90.625,70.332,70.619,90.339,46.027,90.339z M46.027,6.169     c-21.818,0-39.568,17.752-39.568,39.571c0,21.821,17.75,39.573,39.568,39.573c21.82,0,39.572-17.752,39.572-39.573     C85.6,23.921,67.848,6.169,46.027,6.169z" fill="#454B53"/><path d="M61.092,48.253H46.166c-1.388,0-2.513-1.125-2.513-2.513V13.381c0-1.388,1.125-2.513,2.513-2.513     s2.513,1.125,2.513,2.513v29.847h12.413c1.387,0,2.512,1.125,2.512,2.513S62.479,48.253,61.092,48.253z" fill="#454B53"/><path d="M46.166,80.565c-1.388,0-2.513-1.125-2.513-2.513v-7.181c0-1.388,1.125-2.513,2.513-2.513     s2.513,1.125,2.513,2.513v7.181C48.679,79.44,47.554,80.565,46.166,80.565z" fill="#454B53"/><path d="M20.708,48.253h-7.073c-1.387,0-2.512-1.125-2.512-2.513s1.125-2.513,2.512-2.513h7.073     c1.388,0,2.513,1.125,2.513,2.513S22.096,48.253,20.708,48.253z" fill="#454B53"/><path d="M78.424,48.253h-7.07c-1.387,0-2.512-1.125-2.512-2.513s1.125-2.513,2.512-2.513h7.07     c1.387,0,2.512,1.125,2.512,2.513S79.811,48.253,78.424,48.253z" fill="#454B53"/><path d="M27.371,31.083c-0.605,0-1.213-0.218-1.694-0.658l-5.222-4.773c-1.023-0.937-1.095-2.525-0.158-3.55     c0.936-1.023,2.525-1.095,3.549-0.159l5.222,4.773c1.024,0.937,1.095,2.525,0.159,3.55C28.73,30.808,28.053,31.083,27.371,31.083     z" fill="#454B53"/><path d="M69.975,70.026c-0.605,0-1.213-0.218-1.694-0.658l-5.222-4.771c-1.023-0.936-1.096-2.525-0.159-3.55     s2.525-1.096,3.55-0.159l5.221,4.771c1.024,0.936,1.096,2.525,0.16,3.55C71.334,69.751,70.655,70.026,69.975,70.026z" fill="#454B53"/><path d="M24.198,72.076c-0.606,0-1.214-0.218-1.696-0.659c-1.023-0.938-1.094-2.526-0.156-3.55l4.776-5.217     c0.938-1.024,2.526-1.093,3.55-0.157c1.023,0.938,1.094,2.526,0.156,3.55l-4.776,5.217     C25.557,71.802,24.879,72.076,24.198,72.076z" fill="#454B53"/><path d="M63.145,29.478c-0.605,0-1.212-0.218-1.693-0.658c-1.025-0.936-1.097-2.524-0.16-3.549l4.77-5.221     c0.936-1.025,2.525-1.096,3.55-0.16s1.097,2.524,0.16,3.549L65,28.659C64.505,29.202,63.826,29.478,63.145,29.478z" fill="#454B53"/></g></g></g></svg>