<?xml version="1.0" ?><!DOCTYPE svg  PUBLIC '-//W3C//DTD SVG 1.1//EN'  'http://www.w3.org/Graphics/SVG/1.1/DTD/svg11.dtd'><svg enable-background="new 0 0 91 91" height="91px" id="Layer_1" version="1.1" viewBox="0 0 91 91" width="91px" xml:space="preserve" xmlns="http://www.w3.org/2000/svg" xmlns:xlink="http://www.w3.org/1999/xlink"><g><g><g><g><path d="M54.757,48.167c8.668,4.767,16.16,2.768,22.474-3.547l6.484-6.49c5.699-5.692,4.413-12.274,1.06-20.319      l-7.5,7.505c-3.551,3.55-7.595,5.266-11.808,1.044l-0.229-0.22c-4.214-4.217-2.503-8.261,1.049-11.812l7.503-7.503      c-8.035-3.351-14.619-4.633-20.31,1.06l-6.495,6.489c-6.308,6.309-9.09,14.234-4.327,22.905      c-0.834,0.311-1.609,0.767-2.257,1.416L9.942,69.15C7.08,72.013,7.523,77.1,10.928,80.5l0.173,0.174      c3.412,3.407,8.477,3.849,11.353,0.975l20.383-20.385" fill="#E0F1F8"/><path d="M17.672,86.04c-2.912,0-5.969-1.214-8.347-3.588l-0.179-0.181c-2.059-2.056-3.327-4.697-3.564-7.431      c-0.252-2.897,0.666-5.549,2.584-7.467l30.458-30.455c0.234-0.235,0.483-0.456,0.748-0.663      c-3.421-8.106-1.396-16.426,5.836-23.658l6.496-6.49c6.951-6.956,15.188-4.88,23.052-1.602c0.773,0.323,1.336,1.01,1.498,1.832      s-0.096,1.671-0.688,2.264l-7.503,7.503c-3.861,3.861-3.212,6.094-1.048,8.259l0.189,0.182c1.854,1.855,3.159,1.874,3.983,1.731      c1.263-0.22,2.713-1.141,4.311-2.738l7.499-7.504c0.592-0.593,1.441-0.852,2.265-0.688c0.822,0.162,1.509,0.725,1.832,1.498      c3.28,7.87,5.357,16.111-1.604,23.063l-6.482,6.488c-7.587,7.588-16.39,8.961-25.462,3.973c-1.216-0.668-1.659-2.196-0.99-3.412      c0.668-1.216,2.193-1.661,3.412-0.99c7.104,3.906,13.479,2.886,19.486-3.122l6.483-6.489c3.506-3.502,4.105-7.383,1.87-14.021      l-4.756,4.759c-2.377,2.376-4.667,3.729-7.002,4.135c-2.982,0.521-5.795-0.521-8.361-3.093l-0.188-0.18      c-2.713-2.713-6.13-8.266,1.01-15.402l4.759-4.759c-6.636-2.236-10.511-1.635-14.012,1.868l-6.497,6.49      c-6.355,6.356-7.668,13.059-3.9,19.918c0.352,0.641,0.407,1.401,0.152,2.086c-0.254,0.684-0.794,1.224-1.478,1.479      c-0.551,0.205-1.006,0.486-1.354,0.836L11.719,70.927c-0.85,0.851-1.252,2.086-1.131,3.479c0.136,1.556,0.887,3.089,2.115,4.316      l0.179,0.18c2.414,2.41,5.914,2.85,7.795,0.969L41.06,59.487c0.98-0.982,2.572-0.982,3.553,0c0.981,0.98,0.981,2.571,0,3.553      L24.229,83.425C22.475,85.179,20.125,86.039,17.672,86.04z" fill="#454B53"/></g><g><path d="M38.28,55.838c0.311,0.828,0.769,1.596,1.417,2.248l25.775,26.119c2.862,2.864,7.94,2.43,11.343-0.975      l0.173-0.185c3.409-3.395,3.844-8.475,0.985-11.341L52.2,45.581c-0.645-0.654-1.423-1.102-2.245-1.415L38.28,55.838z" fill="#7BA7C9"/><path d="M70.255,88.61L70.255,88.61c-2.536,0-4.865-0.934-6.56-2.629L37.909,59.851      c-0.858-0.863-1.527-1.918-1.981-3.131c-0.346-0.922-0.121-1.962,0.576-2.658L48.179,42.39c0.7-0.701,1.745-0.924,2.672-0.571      c1.243,0.474,2.3,1.146,3.14,1.999L79.762,69.94c1.906,1.911,2.823,4.562,2.572,7.453c-0.236,2.734-1.505,5.374-3.573,7.433      l-0.111,0.122C76.304,87.297,73.265,88.61,70.255,88.61z M41.419,56.253c0.02,0.021,0.04,0.041,0.061,0.062L67.261,82.44      c0.944,0.944,2.15,1.146,2.994,1.146l0,0c1.687,0,3.43-0.777,4.783-2.132l0.116-0.126c1.289-1.285,2.04-2.814,2.174-4.367      c0.12-1.392-0.282-2.628-1.134-3.481L50.412,47.346c-0.015-0.014-0.028-0.028-0.042-0.042L41.419,56.253z" fill="#454B53"/></g><path d="M43.96,52.352c-0.643,0-1.286-0.245-1.776-0.736L14.205,23.639c-0.981-0.98-0.981-2.571,0-3.553     c0.98-0.982,2.572-0.982,3.553,0l27.979,27.977c0.981,0.98,0.981,2.571,0,3.553C45.246,52.106,44.603,52.352,43.96,52.352z" fill="#454B53"/><g><polygon fill="#FDE497" points="11.578,26.272 20.602,17.238 7.434,8.588 2.927,13.103     "/><path d="M11.578,28.785c-0.085,0-0.17-0.005-0.255-0.014c-0.753-0.076-1.43-0.487-1.845-1.119l-8.651-13.17      c-0.654-0.995-0.52-2.313,0.321-3.155l4.507-4.515c0.842-0.844,2.159-0.979,3.158-0.324l13.168,8.65      c0.631,0.414,1.042,1.092,1.119,1.843c0.077,0.752-0.188,1.498-0.722,2.032l-9.023,9.034      C12.882,28.522,12.241,28.785,11.578,28.785z M6.148,13.432l5.834,8.881l4.662-4.668l-8.879-5.833L6.148,13.432z" fill="#454B53"/></g></g></g></g></svg>