<?xml version="1.0" ?><!DOCTYPE svg  PUBLIC '-//W3C//DTD SVG 1.1//EN'  'http://www.w3.org/Graphics/SVG/1.1/DTD/svg11.dtd'><svg enable-background="new 0 0 91 91" height="91px" id="Layer_1" version="1.1" viewBox="0 0 91 91" width="91px" xml:space="preserve" xmlns="http://www.w3.org/2000/svg" xmlns:xlink="http://www.w3.org/1999/xlink"><g><g><g><g><path d="M69.646,66.684c0,11.65-11.218,21.096-25.069,21.096H43.86c-13.847,0-25.068-9.445-25.068-21.096V54.32      c0-11.651,11.222-21.098,25.068-21.098h0.716c13.852,0,25.069,9.447,25.069,21.098V66.684z" fill="#B0E0D4"/><path d="M44.576,90.291H43.86c-15.208,0-27.581-10.59-27.581-23.607V54.32c0-13.019,12.373-23.611,27.581-23.611      h0.716c15.209,0,27.582,10.592,27.582,23.611v12.363C72.158,79.701,59.785,90.291,44.576,90.291z M43.86,35.735      c-12.438,0-22.556,8.337-22.556,18.585v12.363c0,10.246,10.118,18.582,22.556,18.582h0.716c12.438,0,22.557-8.336,22.557-18.582      V54.32c0-10.249-10.119-18.585-22.557-18.585H43.86z" fill="#454B53"/></g><path d="M24.847,41.41c-1.388,0-2.513-1.125-2.513-2.514V19.292c0-10.247,9.695-18.584,21.613-18.584h0.543     c11.914,0,21.606,8.337,21.606,18.584c0,1.387-1.125,2.512-2.513,2.512s-2.513-1.125-2.513-2.512     c0-7.477-7.438-13.559-16.581-13.559h-0.543c-9.146,0-16.588,6.082-16.588,13.559v19.604     C27.359,40.285,26.234,41.41,24.847,41.41z" fill="#454B53"/><path d="M44.215,71.99c-1.388,0-2.513-1.125-2.513-2.512V53.314c0-1.389,1.125-2.514,2.513-2.514     s2.513,1.125,2.513,2.514v16.164C46.728,70.865,45.603,71.99,44.215,71.99z" fill="#454B53"/></g></g></g></svg>