<?xml version="1.0" ?><!DOCTYPE svg  PUBLIC '-//W3C//DTD SVG 1.1//EN'  'http://www.w3.org/Graphics/SVG/1.1/DTD/svg11.dtd'><svg enable-background="new 0 0 91 91" height="91px" id="Layer_1" version="1.1" viewBox="0 0 91 91" width="91px" xml:space="preserve" xmlns="http://www.w3.org/2000/svg" xmlns:xlink="http://www.w3.org/1999/xlink"><g><path d="M64.923,49.479c-5.147,4.697-11.896,7.575-19.285,7.575c-7.321,0-14.208-2.823-19.338-7.449   c-0.044,0.029-0.481,0.073-0.532,0.097c-8.455,4.138-13.924,11.284-13.924,20.129v17.941h66.641V69.827   C78.484,61.016,73.531,53.613,64.923,49.479z" fill="#E0F1F8"/><g><g><g><path d="M73.064,30.357c0,15.162-12.211,27.453-27.279,27.453c-15.061,0-27.27-12.291-27.27-27.453      c0-15.158,12.209-27.456,27.27-27.456C60.854,2.901,73.064,15.199,73.064,30.357z" fill="#FDE9D0"/><path d="M45.785,60.323c-16.422,0-29.782-13.442-29.782-29.966c0-16.525,13.36-29.969,29.782-29.969      c16.427,0,29.791,13.443,29.791,29.969C75.576,46.881,62.212,60.323,45.785,60.323z M45.785,5.414      c-13.651,0-24.757,11.189-24.757,24.943c0,13.752,11.105,24.94,24.757,24.94c13.656,0,24.766-11.188,24.766-24.94      C70.551,16.604,59.441,5.414,45.785,5.414z" fill="#454B53"/></g><path d="M79.613,90.284c-1.389,0-2.514-1.125-2.514-2.513V66.14c0-7.197-3.831-12.229-11.714-15.38     c-1.288-0.516-1.915-1.978-1.4-3.266s1.976-1.916,3.266-1.4c9.731,3.891,14.874,10.822,14.874,20.046v21.632     C82.125,89.159,81,90.284,79.613,90.284z" fill="#454B53"/><path d="M12.399,90.284c-1.388,0-2.513-1.125-2.513-2.513V66.144c0-9.077,5.027-15.955,14.54-19.891     c1.282-0.531,2.751,0.079,3.282,1.36c0.53,1.282-0.079,2.752-1.361,3.282c-7.695,3.185-11.436,8.172-11.436,15.248v21.628     C14.912,89.159,13.787,90.284,12.399,90.284z" fill="#454B53"/><path d="M45.788,48.133c-6.103,0-11.544-3.926-13.538-9.768c-0.449-1.313,0.252-2.74,1.565-3.189     c1.315-0.447,2.741,0.254,3.19,1.566c1.299,3.807,4.829,6.365,8.782,6.365c3.948,0,7.479-2.56,8.788-6.369     c0.45-1.313,1.877-2.013,3.191-1.561c1.313,0.45,2.012,1.879,1.561,3.191C57.324,44.209,51.883,48.133,45.788,48.133z" fill="#454B53"/><path d="M38.067,29.764h-3.394c-1.389,0-2.514-1.125-2.514-2.514c0-1.387,1.125-2.512,2.514-2.512h3.394     c1.388,0,2.513,1.125,2.513,2.512C40.58,28.639,39.455,29.764,38.067,29.764z" fill="#454B53"/><path d="M57.335,29.764H53.94c-1.388,0-2.513-1.125-2.513-2.514c0-1.387,1.125-2.512,2.513-2.512h3.395     c1.388,0,2.513,1.125,2.513,2.512C59.848,28.639,58.723,29.764,57.335,29.764z" fill="#454B53"/></g></g></g></svg>