<?xml version="1.0" ?><!DOCTYPE svg  PUBLIC '-//W3C//DTD SVG 1.1//EN'  'http://www.w3.org/Graphics/SVG/1.1/DTD/svg11.dtd'><svg enable-background="new 0 0 91 91" height="91px" id="Layer_1" version="1.1" viewBox="0 0 91 91" width="91px" xml:space="preserve" xmlns="http://www.w3.org/2000/svg" xmlns:xlink="http://www.w3.org/1999/xlink"><g><g><g><g><path d="M69.867,27.771c0,13.714-11.045,24.827-24.672,24.827c-13.619,0-24.66-11.113-24.66-24.827      c0-13.708,11.041-24.825,24.66-24.825C58.822,2.945,69.867,14.063,69.867,27.771z" fill="#E0F1F8"/><path d="M45.195,55.11c-14.982,0-27.172-12.265-27.172-27.34c0-15.073,12.189-27.337,27.172-27.337      c14.989,0,27.184,12.264,27.184,27.337C72.379,42.846,60.185,55.11,45.195,55.11z M45.195,5.459      c-12.213,0-22.146,10.008-22.146,22.312s9.934,22.314,22.146,22.314c12.219,0,22.158-10.011,22.158-22.314      S57.414,5.459,45.195,5.459z" fill="#454B53"/></g><path d="M75.786,82.201c-1.388,0-2.513-1.125-2.513-2.513V60.13c0-6.277-3.455-10.713-10.561-13.559     c-1.289-0.516-1.914-1.978-1.398-3.267c0.515-1.287,1.977-1.916,3.266-1.398c11.338,4.541,13.719,12.416,13.719,18.224v19.559     C78.299,81.076,77.174,82.201,75.786,82.201z" fill="#454B53"/><path d="M15.007,82.198c-1.388,0-2.513-1.125-2.513-2.513V60.13c0-8.317,4.6-14.615,13.299-18.212     c1.283-0.53,2.752,0.08,3.282,1.361c0.53,1.282-0.079,2.752-1.362,3.282C20.854,49.397,17.52,53.836,17.52,60.13v19.556     C17.52,81.073,16.395,82.198,15.007,82.198z" fill="#454B53"/><g><polygon fill="#9ABFDA" points="54.059,81.47 45.4,88.402 36.732,81.47 42.229,54.687 45.381,54.687 48.481,54.687     "/><path d="M45.4,90.915c-0.556,0-1.111-0.184-1.57-0.551l-8.668-6.933c-0.736-0.59-1.081-1.542-0.892-2.467      l5.497-26.783c0.24-1.169,1.269-2.008,2.461-2.008h6.253c1.19,0,2.218,0.835,2.46,2.001l5.577,26.783      c0.192,0.926-0.151,1.882-0.89,2.473l-8.658,6.933C46.512,90.731,45.955,90.915,45.4,90.915z M39.502,80.468l5.896,4.717      l5.887-4.712l-4.847-23.273h-2.16L39.502,80.468z" fill="#454B53"/></g></g></g></g></svg>