<?xml version="1.0" ?><svg id="Layer_1" style="enable-background:new 0 0 40 40;" version="1.1" viewBox="0 0 40 40" xml:space="preserve" xmlns="http://www.w3.org/2000/svg" xmlns:xlink="http://www.w3.org/1999/xlink"><style type="text/css">
	.st0{fill:none;stroke:#C0C3CD;stroke-width:2;stroke-linecap:round;stroke-linejoin:round;stroke-miterlimit:10;}
	.st1{fill:#EBEFF2;stroke:#C0C3CD;stroke-width:2;stroke-linecap:round;stroke-linejoin:round;stroke-miterlimit:10;}
	.st2{fill:#F9E0B2;stroke:#FCB416;stroke-width:2;stroke-linecap:round;stroke-linejoin:round;stroke-miterlimit:10;}
	.st3{fill:none;stroke:#408ECC;stroke-width:2;stroke-linecap:round;stroke-linejoin:round;stroke-miterlimit:10;}
	.st4{fill:none;stroke:#35B8B2;stroke-width:2;stroke-linecap:round;stroke-linejoin:round;stroke-miterlimit:10;}
	.st5{fill:#CBE6F8;stroke:#408ECC;stroke-width:2;stroke-linecap:round;stroke-linejoin:round;stroke-miterlimit:10;}
	.st6{fill:none;stroke:#FCB416;stroke-width:2;stroke-linecap:round;stroke-linejoin:round;stroke-miterlimit:10;}
	.st7{fill:#B1E0E0;stroke:#35B8B2;stroke-width:2;stroke-linecap:round;stroke-linejoin:round;stroke-miterlimit:10;}
	.st8{fill:none;stroke:#35B8B2;stroke-width:2;stroke-miterlimit:10;}
	.st9{fill:#EBEFF2;stroke:#C0C3CD;stroke-width:2;stroke-miterlimit:10;}
	.st10{fill:none;stroke:#000000;stroke-width:2;stroke-linecap:round;stroke-linejoin:round;stroke-miterlimit:10;}
</style><g><g><polyline class="st6" points="24.9689846,25.6965752 28.805851,32 11.187583,32 15.0375013,25.6965752   "/><path class="st4" d="M29.5464954,17.5399628c0,5.2724018-4.2805462,9.5530262-9.5530262,9.5530262    c-5.2593393,0-9.5399637-4.2806244-9.5399637-9.5530262C10.4535055,12.2806253,14.7341299,8,19.9934692,8    C25.2659492,8,29.5464954,12.2806253,29.5464954,17.5399628z"/></g><path class="st1" d="M24.6353531,17.5466824c0,2.565897-2.0716782,4.6375103-4.6375751,4.6375103   c-2.5553703,0-4.6375103-2.0716133-4.6375103-4.6375103s2.08214-4.6375751,4.6375103-4.6375751   C22.5636749,12.9091072,24.6353531,14.9807854,24.6353531,17.5466824z"/><line class="st3" x1="19.9967175" x2="19.9967175" y1="17.5464954" y2="17.5464954"/></g></svg>